<?xml version="1.0" encoding="utf-8"?>
<!-- Generator: Adobe Illustrator 17.1.0, SVG Export Plug-In . SVG Version: 6.00 Build 0)  -->
<!DOCTYPE svg PUBLIC "-//W3C//DTD SVG 1.1//EN" "http://www.w3.org/Graphics/SVG/1.1/DTD/svg11.dtd">
<svg version="1.1" id="レイヤー_1" xmlns="http://www.w3.org/2000/svg" xmlns:xlink="http://www.w3.org/1999/xlink" x="0px"
	 y="0px" viewBox="0 0 40 30" enable-background="new 0 0 40 30" xml:space="preserve">
<linearGradient id="SVGID_1_" gradientUnits="userSpaceOnUse" x1="13.0073" y1="25.5" x2="25.0517" y2="25.5">
	<stop  offset="0" style="stop-color:#000000"/>
	<stop  offset="0.4724" style="stop-color:#1A1A1A"/>
	<stop  offset="0.6861" style="stop-color:#131313"/>
	<stop  offset="0.9805" style="stop-color:#010101"/>
	<stop  offset="1" style="stop-color:#000000"/>
</linearGradient>
<polygon fill="url(#SVGID_1_)" points="25.1,23 13,23 13.9,28 24.1,28 "/>
<linearGradient id="SVGID_2_" gradientUnits="userSpaceOnUse" x1="19.0295" y1="24.8879" x2="19.0295" y2="21.9195">
	<stop  offset="0" style="stop-color:#8F8F8F"/>
	<stop  offset="1" style="stop-color:#000000"/>
</linearGradient>
<ellipse fill="url(#SVGID_2_)" cx="19" cy="23.4" rx="6" ry="1.5"/>
<g>
	<linearGradient id="SVGID_3_" gradientUnits="userSpaceOnUse" x1="19.0295" y1="24.9682" x2="19.0295" y2="22.7217">
		<stop  offset="0" style="stop-color:#3F3300"/>
		<stop  offset="1" style="stop-color:#7F5700"/>
	</linearGradient>
	<ellipse fill="url(#SVGID_3_)" cx="19" cy="23.8" rx="5.4" ry="1.1"/>
	<g opacity="0.83">
		<linearGradient id="SVGID_4_" gradientUnits="userSpaceOnUse" x1="17.0933" y1="24.4475" x2="17.0933" y2="22.6082">
			<stop  offset="0" style="stop-color:#3F3300"/>
			<stop  offset="1" style="stop-color:#7F5700"/>
		</linearGradient>
		<path fill="url(#SVGID_4_)" d="M17.1,22.7c-0.1,0-0.2-0.1-0.3-0.1c-0.1,0-0.2,0.1-0.3,0.1c-0.1,0-0.2-0.1-0.3,0
			c-0.1,0-0.2,0.1-0.3,0.1c-0.1,0-0.2,0-0.3,0c-0.1,0-0.2,0.1-0.3,0.2c-0.1,0-0.2,0-0.3,0.1c-0.1,0.1-0.1,0.2-0.2,0.3
			c-0.1,0.1-0.2,0.2-0.2,0.3c0,0,0.1,0,0.1,0c0,0-0.1,0-0.1,0c0,0,0.1,0,0.1,0c0,0-0.1,0-0.1,0.1c0,0,0.1,0,0.1,0
			c0,0-0.1,0.1-0.1,0.1c0,0,0.1,0,0.1,0s-0.1,0.1,0,0.1c0,0,0.1,0,0.1,0c0.1,0,0.1,0.2,0.2,0.2c0.1,0,0.2,0,0.3,0
			c0.1,0,0.2,0.1,0.3,0.2c0.1,0,0.2,0,0.3,0c0.1,0,0.2,0.1,0.3,0.1c0.1,0,0.2-0.1,0.3,0c0.1,0,0.2,0.1,0.3,0.1
			c0.1,0,0.2-0.1,0.3-0.1c0.1,0,0.2,0.1,0.3,0.1c0.1,0,0.2-0.1,0.3-0.1c0.1,0,0.2,0.1,0.3,0.1c0.1,0,0.2-0.1,0.3-0.1
			c0.1,0,0.2,0.1,0.3,0c0.1,0,0.2-0.1,0.3-0.1c0.1,0,0.2,0,0.3,0c0.1,0,0.2-0.1,0.3-0.2c0.1,0,0.2,0,0.3,0c0.1,0,0.1-0.2,0.2-0.2
			c0,0,0.1,0,0.1,0c0,0-0.1-0.1-0.1-0.1c0,0,0.1,0,0.1,0c0,0-0.1-0.1-0.1-0.1c0,0,0.1,0,0.1,0c0,0-0.1,0-0.1-0.1c0,0,0.1,0,0.1,0
			s-0.1,0-0.1,0s0.1,0,0.1,0c0-0.1-0.1-0.2-0.2-0.3c-0.1-0.1-0.1-0.2-0.2-0.3C19.3,23,19.1,23,19,23c-0.1,0-0.2-0.2-0.3-0.2
			c-0.1,0-0.2,0-0.3,0c-0.1,0-0.2-0.1-0.3-0.1c-0.1,0-0.2,0.1-0.3,0c-0.1,0-0.2-0.1-0.3-0.1C17.3,22.6,17.2,22.7,17.1,22.7z"/>
	</g>
	<g opacity="0.83">
		<linearGradient id="SVGID_5_" gradientUnits="userSpaceOnUse" x1="19.7371" y1="24.2069" x2="19.7371" y2="22.3675">
			<stop  offset="0" style="stop-color:#3F3300"/>
			<stop  offset="1" style="stop-color:#7F5700"/>
		</linearGradient>
		<path fill="url(#SVGID_5_)" d="M19.7,22.4c-0.1,0-0.2-0.1-0.3-0.1c-0.1,0-0.2,0.1-0.3,0.1c-0.1,0-0.2-0.1-0.3,0
			c-0.1,0-0.2,0.1-0.3,0.1c-0.1,0-0.2,0-0.3,0c-0.1,0-0.2,0.1-0.3,0.2c-0.1,0-0.2,0-0.3,0.1c-0.1,0.1-0.1,0.2-0.2,0.3
			c-0.1,0.1-0.2,0.2-0.2,0.3c0,0,0.1,0,0.1,0c0,0-0.1,0-0.1,0c0,0,0.1,0,0.1,0c0,0-0.1,0-0.1,0.1c0,0,0.1,0,0.1,0
			c0,0-0.1,0.1-0.1,0.1c0,0,0.1,0,0.1,0c0,0-0.1,0.1,0,0.1c0,0,0.1,0,0.1,0c0.1,0,0.1,0.2,0.2,0.2c0.1,0,0.2,0,0.3,0
			c0.1,0,0.2,0.1,0.3,0.2c0.1,0,0.2,0,0.3,0c0.1,0,0.2,0.1,0.3,0.1c0.1,0,0.2-0.1,0.3,0c0.1,0,0.2,0.1,0.3,0.1
			c0.1,0,0.2-0.1,0.3-0.1c0.1,0,0.2,0.1,0.3,0.1c0.1,0,0.2-0.1,0.3-0.1c0.1,0,0.2,0.1,0.3,0.1c0.1,0,0.2-0.1,0.3-0.1
			c0.1,0,0.2,0.1,0.3,0c0.1,0,0.2-0.1,0.3-0.1c0.1,0,0.2,0,0.3,0c0.1,0,0.2-0.1,0.3-0.2c0.1,0,0.2,0,0.3,0c0.1,0,0.1-0.2,0.2-0.2
			c0,0,0.1,0,0.1,0c0,0-0.1-0.1-0.1-0.1c0,0,0.1,0,0.1,0c0,0-0.1-0.1-0.1-0.1c0,0,0.1,0,0.1,0c0,0-0.1,0-0.1-0.1s0.1,0,0.1,0
			c0,0-0.1,0-0.1,0s0.1,0,0.1,0c0-0.1-0.1-0.2-0.2-0.3c-0.1-0.1-0.1-0.2-0.2-0.3c-0.1-0.1-0.2,0-0.3-0.1c-0.1,0-0.2-0.2-0.3-0.2
			c-0.1,0-0.2,0-0.3,0c-0.1,0-0.2-0.1-0.3-0.1c-0.1,0-0.2,0.1-0.3,0c-0.1,0-0.2-0.1-0.3-0.1C20,22.4,19.9,22.4,19.7,22.4z"/>
	</g>
	<g opacity="0.83">
		<linearGradient id="SVGID_6_" gradientUnits="userSpaceOnUse" x1="20.6919" y1="24.6882" x2="20.6919" y2="22.8489">
			<stop  offset="0" style="stop-color:#3F3300"/>
			<stop  offset="1" style="stop-color:#7F5700"/>
		</linearGradient>
		<path fill="url(#SVGID_6_)" d="M20.7,22.9c-0.1,0-0.2-0.1-0.3-0.1c-0.1,0-0.2,0.1-0.3,0.1c-0.1,0-0.2-0.1-0.3,0
			c-0.1,0-0.2,0.1-0.3,0.1c-0.1,0-0.2,0-0.3,0c-0.1,0-0.2,0.1-0.3,0.2c-0.1,0-0.2,0-0.3,0.1c-0.1,0.1-0.1,0.2-0.2,0.3
			c-0.1,0.1-0.2,0.2-0.2,0.3c0,0,0.1,0,0.1,0c0,0-0.1,0-0.1,0c0,0,0.1,0,0.1,0c0,0-0.1,0-0.1,0.1c0,0,0.1,0,0.1,0
			c0,0-0.1,0.1-0.1,0.1s0.1,0,0.1,0c0,0-0.1,0.1,0,0.1c0,0,0.1,0,0.1,0c0.1,0,0.1,0.2,0.2,0.2c0.1,0,0.2,0,0.3,0
			c0.1,0,0.2,0.1,0.3,0.2c0.1,0,0.2,0,0.3,0c0.1,0,0.2,0.1,0.3,0.1c0.1,0,0.2-0.1,0.3,0c0.1,0,0.2,0.1,0.3,0.1
			c0.1,0,0.2-0.1,0.3-0.1c0.1,0,0.2,0.1,0.3,0.1c0.1,0,0.2-0.1,0.3-0.1c0.1,0,0.2,0.1,0.3,0.1c0.1,0,0.2-0.1,0.3-0.1
			c0.1,0,0.2,0.1,0.3,0c0.1,0,0.2-0.1,0.3-0.1c0.1,0,0.2,0,0.3,0c0.1,0,0.2-0.1,0.3-0.2c0.1,0,0.2,0,0.3,0c0.1,0,0.1-0.2,0.2-0.2
			c0,0,0.1,0,0.1,0c0,0-0.1-0.1-0.1-0.1c0,0,0.1,0,0.1,0c0,0-0.1-0.1-0.1-0.1c0,0,0.1,0,0.1,0c0,0-0.1,0-0.1-0.1s0.1,0,0.1,0
			c0,0-0.1,0-0.1,0s0.1,0,0.1,0c0-0.1-0.1-0.2-0.2-0.3c-0.1-0.1-0.1-0.2-0.2-0.3c-0.1-0.1-0.2,0-0.3-0.1c-0.1,0-0.2-0.2-0.3-0.2
			c-0.1,0-0.2,0-0.3,0c-0.1,0-0.2-0.1-0.3-0.1c-0.1,0-0.2,0.1-0.3,0c-0.1,0-0.2-0.1-0.3-0.1C20.9,22.8,20.8,22.9,20.7,22.9z"/>
	</g>
	<g opacity="0.83">
		<linearGradient id="SVGID_7_" gradientUnits="userSpaceOnUse" x1="17.7542" y1="24.6882" x2="17.7542" y2="22.8489">
			<stop  offset="0" style="stop-color:#3F3300"/>
			<stop  offset="1" style="stop-color:#7F5700"/>
		</linearGradient>
		<path fill="url(#SVGID_7_)" d="M17.8,22.9c-0.1,0-0.2-0.1-0.3-0.1c-0.1,0-0.2,0.1-0.3,0.1c-0.1,0-0.2-0.1-0.3,0
			c-0.1,0-0.2,0.1-0.3,0.1c-0.1,0-0.2,0-0.3,0c-0.1,0-0.2,0.1-0.3,0.2c-0.1,0-0.2,0-0.3,0.1c-0.1,0.1-0.1,0.2-0.2,0.3
			c-0.1,0.1-0.2,0.2-0.2,0.3c0,0,0.1,0,0.1,0c0,0-0.1,0-0.1,0c0,0,0.1,0,0.1,0c0,0-0.1,0-0.1,0.1c0,0,0.1,0,0.1,0
			c0,0-0.1,0.1-0.1,0.1c0,0,0.1,0,0.1,0s-0.1,0.1,0,0.1c0,0,0.1,0,0.1,0c0.1,0,0.1,0.2,0.2,0.2c0.1,0,0.2,0,0.3,0
			c0.1,0,0.2,0.1,0.3,0.2c0.1,0,0.2,0,0.3,0c0.1,0,0.2,0.1,0.3,0.1c0.1,0,0.2-0.1,0.3,0c0.1,0,0.2,0.1,0.3,0.1
			c0.1,0,0.2-0.1,0.3-0.1c0.1,0,0.2,0.1,0.3,0.1c0.1,0,0.2-0.1,0.3-0.1c0.1,0,0.2,0.1,0.3,0.1c0.1,0,0.2-0.1,0.3-0.1
			c0.1,0,0.2,0.1,0.3,0c0.1,0,0.2-0.1,0.3-0.1c0.1,0,0.2,0,0.3,0c0.1,0,0.2-0.1,0.3-0.2c0.1,0,0.2,0,0.3,0c0.1,0,0.1-0.2,0.2-0.2
			c0,0,0.1,0,0.1,0c0,0-0.1-0.1-0.1-0.1c0,0,0.1,0,0.1,0c0,0-0.1-0.1-0.1-0.1c0,0,0.1,0,0.1,0c0,0-0.1,0-0.1-0.1c0,0,0.1,0,0.1,0
			c0,0-0.1,0-0.1,0s0.1,0,0.1,0c0-0.1-0.1-0.2-0.2-0.3c-0.1-0.1-0.1-0.2-0.2-0.3c-0.1-0.1-0.2,0-0.3-0.1c-0.1,0-0.2-0.2-0.3-0.2
			c-0.1,0-0.2,0-0.3,0c-0.1,0-0.2-0.1-0.3-0.1c-0.1,0-0.2,0.1-0.3,0c-0.1,0-0.2-0.1-0.3-0.1C18,22.8,17.9,22.9,17.8,22.9z"/>
	</g>
	<g opacity="0.83">
		<linearGradient id="SVGID_8_" gradientUnits="userSpaceOnUse" x1="16.3588" y1="24.4475" x2="16.3588" y2="22.6082">
			<stop  offset="0" style="stop-color:#3F3300"/>
			<stop  offset="1" style="stop-color:#7F5700"/>
		</linearGradient>
		<path fill="url(#SVGID_8_)" d="M16.4,22.7c-0.1,0-0.2-0.1-0.3-0.1c-0.1,0-0.2,0.1-0.3,0.1c-0.1,0-0.2-0.1-0.3,0
			c-0.1,0-0.2,0.1-0.3,0.1c-0.1,0-0.2,0-0.3,0c-0.1,0-0.2,0.1-0.3,0.2c-0.1,0-0.2,0-0.3,0.1c-0.1,0.1-0.1,0.2-0.2,0.3
			c-0.1,0.1-0.2,0.2-0.2,0.3c0,0,0.1,0,0.1,0c0,0-0.1,0-0.1,0c0,0,0.1,0,0.1,0c0,0-0.1,0-0.1,0.1c0,0,0.1,0,0.1,0s-0.1,0.1-0.1,0.1
			c0,0,0.1,0,0.1,0c0,0-0.1,0.1,0,0.1c0,0,0.1,0,0.1,0c0.1,0,0.1,0.2,0.2,0.2c0.1,0,0.2,0,0.3,0c0.1,0,0.2,0.1,0.3,0.2
			c0.1,0,0.2,0,0.3,0c0.1,0,0.2,0.1,0.3,0.1c0.1,0,0.2-0.1,0.3,0c0.1,0,0.2,0.1,0.3,0.1c0.1,0,0.2-0.1,0.3-0.1
			c0.1,0,0.2,0.1,0.3,0.1c0.1,0,0.2-0.1,0.3-0.1c0.1,0,0.2,0.1,0.3,0.1c0.1,0,0.2-0.1,0.3-0.1c0.1,0,0.2,0.1,0.3,0
			c0.1,0,0.2-0.1,0.3-0.1c0.1,0,0.2,0,0.3,0c0.1,0,0.2-0.1,0.3-0.2c0.1,0,0.2,0,0.3,0c0.1,0,0.1-0.2,0.2-0.2c0,0,0.1,0,0.1,0
			c0,0-0.1-0.1-0.1-0.1c0,0,0.1,0,0.1,0c0,0-0.1-0.1-0.1-0.1c0,0,0.1,0,0.1,0c0,0-0.1,0-0.1-0.1c0,0,0.1,0,0.1,0c0,0-0.1,0-0.1,0
			c0,0,0.1,0,0.1,0c0-0.1-0.1-0.2-0.2-0.3c-0.1-0.1-0.1-0.2-0.2-0.3c-0.1-0.1-0.2,0-0.3-0.1c-0.1,0-0.2-0.2-0.3-0.2
			c-0.1,0-0.2,0-0.3,0c-0.1,0-0.2-0.1-0.3-0.1c-0.1,0-0.2,0.1-0.3,0c-0.1,0-0.2-0.1-0.3-0.1C16.6,22.6,16.5,22.7,16.4,22.7z"/>
	</g>
	<g opacity="0.83">
		<linearGradient id="SVGID_9_" gradientUnits="userSpaceOnUse" x1="18.5621" y1="24.2069" x2="18.5621" y2="22.3675">
			<stop  offset="0" style="stop-color:#3F3300"/>
			<stop  offset="1" style="stop-color:#7F5700"/>
		</linearGradient>
		<path fill="url(#SVGID_9_)" d="M18.6,22.4c-0.1,0-0.2-0.1-0.3-0.1c-0.1,0-0.2,0.1-0.3,0.1c-0.1,0-0.2-0.1-0.3,0
			c-0.1,0-0.2,0.1-0.3,0.1c-0.1,0-0.2,0-0.3,0c-0.1,0-0.2,0.1-0.3,0.2c-0.1,0-0.2,0-0.3,0.1c-0.1,0.1-0.1,0.2-0.2,0.3
			c-0.1,0.1-0.2,0.2-0.2,0.3c0,0,0.1,0,0.1,0c0,0-0.1,0-0.1,0c0,0,0.1,0,0.1,0c0,0-0.1,0-0.1,0.1c0,0,0.1,0,0.1,0S16,23.6,16,23.6
			c0,0,0.1,0,0.1,0c0,0-0.1,0.1,0,0.1c0,0,0.1,0,0.1,0c0.1,0,0.1,0.2,0.2,0.2c0.1,0,0.2,0,0.3,0c0.1,0,0.2,0.1,0.3,0.2
			c0.1,0,0.2,0,0.3,0c0.1,0,0.2,0.1,0.3,0.1c0.1,0,0.2-0.1,0.3,0c0.1,0,0.2,0.1,0.3,0.1c0.1,0,0.2-0.1,0.3-0.1s0.2,0.1,0.3,0.1
			c0.1,0,0.2-0.1,0.3-0.1c0.1,0,0.2,0.1,0.3,0.1c0.1,0,0.2-0.1,0.3-0.1c0.1,0,0.2,0.1,0.3,0c0.1,0,0.2-0.1,0.3-0.1
			c0.1,0,0.2,0,0.3,0c0.1,0,0.2-0.1,0.3-0.2c0.1,0,0.2,0,0.3,0c0.1,0,0.1-0.2,0.2-0.2c0,0,0.1,0,0.1,0c0,0-0.1-0.1-0.1-0.1
			c0,0,0.1,0,0.1,0c0,0-0.1-0.1-0.1-0.1c0,0,0.1,0,0.1,0c0,0-0.1,0-0.1-0.1s0.1,0,0.1,0c0,0-0.1,0-0.1,0c0,0,0.1,0,0.1,0
			c0-0.1-0.1-0.2-0.2-0.3c-0.1-0.1-0.1-0.2-0.2-0.3c-0.1-0.1-0.2,0-0.3-0.1c-0.1,0-0.2-0.2-0.3-0.2c-0.1,0-0.2,0-0.3,0
			c-0.1,0-0.2-0.1-0.3-0.1c-0.1,0-0.2,0.1-0.3,0c-0.1,0-0.2-0.1-0.3-0.1C18.8,22.4,18.7,22.4,18.6,22.4z"/>
	</g>
	<g opacity="0.83">
		<linearGradient id="SVGID_10_" gradientUnits="userSpaceOnUse" x1="20.9856" y1="24.2069" x2="20.9856" y2="22.3675">
			<stop  offset="0" style="stop-color:#3F3300"/>
			<stop  offset="1" style="stop-color:#7F5700"/>
		</linearGradient>
		<path fill="url(#SVGID_10_)" d="M21,22.4c-0.1,0-0.2-0.1-0.3-0.1c-0.1,0-0.2,0.1-0.3,0.1c-0.1,0-0.2-0.1-0.3,0
			c-0.1,0-0.2,0.1-0.3,0.1c-0.1,0-0.2,0-0.3,0c-0.1,0-0.2,0.1-0.3,0.2c-0.1,0-0.2,0-0.3,0.1c-0.1,0.1-0.1,0.2-0.2,0.3
			c-0.1,0.1-0.2,0.2-0.2,0.3c0,0,0.1,0,0.1,0c0,0-0.1,0-0.1,0c0,0,0.1,0,0.1,0c0,0-0.1,0-0.1,0.1c0,0,0.1,0,0.1,0
			c0,0-0.1,0.1-0.1,0.1c0,0,0.1,0,0.1,0c0,0-0.1,0.1,0,0.1s0.1,0,0.1,0c0.1,0,0.1,0.2,0.2,0.2c0.1,0,0.2,0,0.3,0
			c0.1,0,0.2,0.1,0.3,0.2c0.1,0,0.2,0,0.3,0c0.1,0,0.2,0.1,0.3,0.1c0.1,0,0.2-0.1,0.3,0c0.1,0,0.2,0.1,0.3,0.1
			c0.1,0,0.2-0.1,0.3-0.1c0.1,0,0.2,0.1,0.3,0.1c0.1,0,0.2-0.1,0.3-0.1c0.1,0,0.2,0.1,0.3,0.1c0.1,0,0.2-0.1,0.3-0.1
			c0.1,0,0.2,0.1,0.3,0c0.1,0,0.2-0.1,0.3-0.1c0.1,0,0.2,0,0.3,0c0.1,0,0.2-0.1,0.3-0.2c0.1,0,0.2,0,0.3,0c0.1,0,0.1-0.2,0.2-0.2
			c0,0,0.1,0,0.1,0c0,0-0.1-0.1-0.1-0.1c0,0,0.1,0,0.1,0c0,0-0.1-0.1-0.1-0.1c0,0,0.1,0,0.1,0c0,0-0.1,0-0.1-0.1s0.1,0,0.1,0
			c0,0-0.1,0-0.1,0c0,0,0.1,0,0.1,0c0-0.1-0.1-0.2-0.2-0.3c-0.1-0.1-0.1-0.2-0.2-0.3c-0.1-0.1-0.2,0-0.3-0.1c-0.1,0-0.2-0.2-0.3-0.2
			c-0.1,0-0.2,0-0.3,0c-0.1,0-0.2-0.1-0.3-0.1c-0.1,0-0.2,0.1-0.3,0c-0.1,0-0.2-0.1-0.3-0.1C21.2,22.4,21.1,22.4,21,22.4z"/>
	</g>
	<g opacity="0.83">
		<linearGradient id="SVGID_11_" gradientUnits="userSpaceOnUse" x1="21.7201" y1="24.5278" x2="21.7201" y2="22.6884">
			<stop  offset="0" style="stop-color:#3F3300"/>
			<stop  offset="1" style="stop-color:#7F5700"/>
		</linearGradient>
		<path fill="url(#SVGID_11_)" d="M21.7,22.8c-0.1,0-0.2-0.1-0.3-0.1c-0.1,0-0.2,0.1-0.3,0.1c-0.1,0-0.2-0.1-0.3,0
			c-0.1,0-0.2,0.1-0.3,0.1c-0.1,0-0.2,0-0.3,0c-0.1,0-0.2,0.1-0.3,0.2c-0.1,0-0.2,0-0.3,0.1c-0.1,0.1-0.1,0.2-0.2,0.3
			c-0.1,0.1-0.2,0.2-0.2,0.3c0,0,0.1,0,0.1,0c0,0-0.1,0-0.1,0c0,0,0.1,0,0.1,0c0,0-0.1,0-0.1,0.1c0,0,0.1,0,0.1,0
			c0,0-0.1,0.1-0.1,0.1c0,0,0.1,0,0.1,0c0,0-0.1,0.1,0,0.1c0,0,0.1,0,0.1,0c0.1,0,0.1,0.2,0.2,0.2c0.1,0,0.2,0,0.3,0
			c0.1,0,0.2,0.1,0.3,0.2c0.1,0,0.2,0,0.3,0c0.1,0,0.2,0.1,0.3,0.1c0.1,0,0.2-0.1,0.3,0c0.1,0,0.2,0.1,0.3,0.1
			c0.1,0,0.2-0.1,0.3-0.1c0.1,0,0.2,0.1,0.3,0.1c0.1,0,0.2-0.1,0.3-0.1c0.1,0,0.2,0.1,0.3,0.1c0.1,0,0.2-0.1,0.3-0.1
			c0.1,0,0.2,0.1,0.3,0c0.1,0,0.2-0.1,0.3-0.1c0.1,0,0.2,0,0.3,0c0.1,0,0.2-0.1,0.3-0.2c0.1,0,0.2,0,0.3,0c0.1,0,0.1-0.2,0.2-0.2
			c0,0,0.1,0,0.1,0c0,0-0.1-0.1-0.1-0.1c0,0,0.1,0,0.1,0c0,0-0.1-0.1-0.1-0.1c0,0,0.1,0,0.1,0c0,0-0.1,0-0.1-0.1c0,0,0.1,0,0.1,0
			c0,0-0.1,0-0.1,0c0,0,0.1,0,0.1,0c0-0.1-0.1-0.2-0.2-0.3c-0.1-0.1-0.1-0.2-0.2-0.3c-0.1-0.1-0.2,0-0.3-0.1c-0.1,0-0.2-0.2-0.3-0.2
			c-0.1,0-0.2,0-0.3,0c-0.1,0-0.2-0.1-0.3-0.1c-0.1,0-0.2,0.1-0.3,0c-0.1,0-0.2-0.1-0.3-0.1C21.9,22.7,21.8,22.8,21.7,22.8z"/>
	</g>
	<g opacity="0.83">
		<linearGradient id="SVGID_12_" gradientUnits="userSpaceOnUse" x1="19.1496" y1="24.7684" x2="19.1496" y2="22.9292">
			<stop  offset="0" style="stop-color:#3F3300"/>
			<stop  offset="1" style="stop-color:#7F5700"/>
		</linearGradient>
		<path fill="url(#SVGID_12_)" d="M19.1,23c-0.1,0-0.2-0.1-0.3-0.1c-0.1,0-0.2,0.1-0.3,0.1c-0.1,0-0.2-0.1-0.3,0
			c-0.1,0-0.2,0.1-0.3,0.1c-0.1,0-0.2,0-0.3,0c-0.1,0-0.2,0.1-0.3,0.2c-0.1,0-0.2,0-0.3,0.1c-0.1,0.1-0.1,0.2-0.2,0.3
			c-0.1,0.1-0.2,0.2-0.2,0.3c0,0,0.1,0,0.1,0c0,0-0.1,0-0.1,0c0,0,0.1,0,0.1,0c0,0-0.1,0-0.1,0.1c0,0,0.1,0,0.1,0
			c0,0-0.1,0.1-0.1,0.1c0,0,0.1,0,0.1,0c0,0-0.1,0.1,0,0.1c0,0,0.1,0,0.1,0c0.1,0,0.1,0.2,0.2,0.2c0.1,0,0.2,0,0.3,0
			c0.1,0,0.2,0.1,0.3,0.2c0.1,0,0.2,0,0.3,0c0.1,0,0.2,0.1,0.3,0.1c0.1,0,0.2-0.1,0.3,0c0.1,0,0.2,0.1,0.3,0.1
			c0.1,0,0.2-0.1,0.3-0.1c0.1,0,0.2,0.1,0.3,0.1c0.1,0,0.2-0.1,0.3-0.1c0.1,0,0.2,0.1,0.3,0.1c0.1,0,0.2-0.1,0.3-0.1
			c0.1,0,0.2,0.1,0.3,0c0.1,0,0.2-0.1,0.3-0.1c0.1,0,0.2,0,0.3,0c0.1,0,0.2-0.1,0.3-0.2c0.1,0,0.2,0,0.3,0c0.1,0,0.1-0.2,0.2-0.2
			c0,0,0.1,0,0.1,0c0,0-0.1-0.1-0.1-0.1c0,0,0.1,0,0.1,0c0,0-0.1-0.1-0.1-0.1c0,0,0.1,0,0.1,0c0,0-0.1,0-0.1-0.1s0.1,0,0.1,0
			c0,0-0.1,0-0.1,0c0,0,0.1,0,0.1,0c0-0.1-0.1-0.2-0.2-0.3c-0.1-0.1-0.1-0.2-0.2-0.3c-0.1-0.1-0.2,0-0.3-0.1c-0.1,0-0.2-0.2-0.3-0.2
			c-0.1,0-0.2,0-0.3,0c-0.1,0-0.2-0.1-0.3-0.1c-0.1,0-0.2,0.1-0.3,0c-0.1,0-0.2-0.1-0.3-0.1C19.4,22.9,19.3,23,19.1,23z"/>
	</g>
</g>
<g>
	
		<linearGradient id="SVGID_13_" gradientUnits="userSpaceOnUse" x1="36.5238" y1="2.9876" x2="45.8949" y2="2.9876" gradientTransform="matrix(0.9949 0.1006 -0.1006 0.9949 -26.4682 15.9935)">
		<stop  offset="0" style="stop-color:#79BF00"/>
		<stop  offset="1" style="stop-color:#9CFF5F"/>
	</linearGradient>
	<path fill="url(#SVGID_13_)" d="M18.9,23.2l-2.4-0.1c-0.3-0.3-2.1-0.6-3.4-0.8c-1.9-0.3-3.6,0.1-3.6,0.5c-0.1,0.4,1.5,1,3.4,0.9
		c2.4-0.1,3.4-0.1,3.6-0.4l2.4,0.1L18.9,23.2z"/>
	
		<linearGradient id="SVGID_14_" gradientUnits="userSpaceOnUse" x1="57.8337" y1="37.5149" x2="66.8672" y2="37.5149" gradientTransform="matrix(-0.9878 0.156 0.156 0.9878 79.5338 -23.6525)">
		<stop  offset="0" style="stop-color:#79BF00"/>
		<stop  offset="1" style="stop-color:#9CFF5F"/>
	</linearGradient>
	<path fill="url(#SVGID_14_)" d="M19.3,23.3l2.3-0.2c0.2-0.3,2-0.6,3.2-0.9c1.8-0.3,3.5,0,3.5,0.3c0.1,0.4-1.3,1-3.2,1
		c-2.3,0-3.3,0-3.5-0.2l-2.3,0.2L19.3,23.3z"/>
	
		<linearGradient id="SVGID_15_" gradientUnits="userSpaceOnUse" x1="-44.868" y1="73.5308" x2="-34.8439" y2="73.5308" gradientTransform="matrix(-0.8748 -0.3151 -0.2823 0.7837 9.7779 -45.9971)">
		<stop  offset="0" style="stop-color:#79BF00"/>
		<stop  offset="1" style="stop-color:#9CFF5F"/>
	</linearGradient>
	<path fill="url(#SVGID_15_)" d="M19.3,23.3l2.3,0.5c0.5-0.2,2.4,0.1,3.7,0.2c2,0.3,3.3,1,3.1,1.3c-0.2,0.3-2,0.4-3.8-0.2
		c-2.1-0.7-3.1-1-3.1-1.2l-2.3-0.5L19.3,23.3z"/>
	
		<linearGradient id="SVGID_16_" gradientUnits="userSpaceOnUse" x1="-4.4118" y1="30.776" x2="5.8176" y2="30.776" gradientTransform="matrix(0.8994 -0.2357 0.2111 0.8058 7.4632 -0.679)">
		<stop  offset="0" style="stop-color:#79BF00"/>
		<stop  offset="1" style="stop-color:#9CFF5F"/>
	</linearGradient>
	<path fill="url(#SVGID_16_)" d="M19.3,23.3l-2.4,0.4c-0.5-0.2-2.4-0.1-3.7,0c-2,0.1-3.4,0.8-3.3,1.2c0.1,0.3,1.9,0.5,3.8,0
		c2.2-0.6,3.2-0.8,3.3-1.1l2.4-0.4L19.3,23.3z"/>
	
		<linearGradient id="SVGID_17_" gradientUnits="userSpaceOnUse" x1="-108.0374" y1="-7.2958" x2="-101.327" y2="-7.2958" gradientTransform="matrix(-0.6141 -0.6982 -0.6255 0.5502 -46.7624 -44.2377)">
		<stop  offset="0" style="stop-color:#79BF00"/>
		<stop  offset="1" style="stop-color:#9CFF5F"/>
	</linearGradient>
	<path fill="url(#SVGID_17_)" d="M19.3,23.3l1.5,0.8c0.5,0,1.8,0.6,2.7,0.9c1.3,0.6,1.8,1.4,1.4,1.5c-0.4,0.2-1.9-0.2-2.8-0.9
		c-1.2-0.9-1.7-1.3-1.5-1.5l-1.4-0.8L19.3,23.3z"/>
	
		<linearGradient id="SVGID_18_" gradientUnits="userSpaceOnUse" x1="-108.8516" y1="-8.1119" x2="-102.141" y2="-8.1119" gradientTransform="matrix(0.6141 -0.6982 0.6255 0.5502 86.2077 -44.2377)">
		<stop  offset="0" style="stop-color:#79BF00"/>
		<stop  offset="1" style="stop-color:#9CFF5F"/>
	</linearGradient>
	<path fill="url(#SVGID_18_)" d="M19.2,23.4l-1.5,0.8c-0.5,0-1.8,0.6-2.7,0.9c-1.3,0.6-1.8,1.4-1.4,1.5c0.4,0.2,1.9-0.2,2.8-0.9
		c1.2-0.9,1.7-1.3,1.5-1.5l1.4-0.8L19.2,23.4z"/>
	
		<linearGradient id="SVGID_19_" gradientUnits="userSpaceOnUse" x1="-142.6536" y1="-123.2436" x2="-137.98" y2="-123.2436" gradientTransform="matrix(5.950000e-02 -0.9279 -0.8313 -5.330000e-02 -75.1398 -111.3704)">
		<stop  offset="0" style="stop-color:#79BF00"/>
		<stop  offset="1" style="stop-color:#9CFF5F"/>
	</linearGradient>
	<path fill="url(#SVGID_19_)" d="M19.4,23.3l-0.1,1.1c0.4,0.2,0.5,1,0.6,1.6c0.1,0.9-0.6,1.6-1.1,1.6c-0.5,0-1.1-0.8-0.7-1.6
		c0.5-1.1,0.6-1.5,1-1.6l0.1-1.1L19.4,23.3z"/>
	
		<linearGradient id="SVGID_20_" gradientUnits="userSpaceOnUse" x1="76.4892" y1="19.842" x2="84.1428" y2="19.842" gradientTransform="matrix(-0.8367 0.4055 0.3633 0.7496 82.4766 -25.2199)">
		<stop  offset="0" style="stop-color:#79BF00"/>
		<stop  offset="1" style="stop-color:#9CFF5F"/>
	</linearGradient>
	<path fill="url(#SVGID_20_)" d="M19,23.2l1.7-0.6c0.1-0.3,1.4-0.9,2.2-1.3c1.3-0.6,2.7-0.7,2.8-0.4c0.2,0.3-0.8,1-2.2,1.4
		c-1.8,0.4-2.5,0.7-2.8,0.5l-1.7,0.6L19,23.2z"/>
	
		<linearGradient id="SVGID_21_" gradientUnits="userSpaceOnUse" x1="93.0051" y1="-326.8723" x2="100.2374" y2="-326.8723" gradientTransform="matrix(0.7157 0.5935 0.5318 -0.6412 120.391 -244.7772)">
		<stop  offset="0" style="stop-color:#79BF00"/>
		<stop  offset="1" style="stop-color:#9CFF5F"/>
	</linearGradient>
	<path fill="url(#SVGID_21_)" d="M18.9,23.5l-1.7-0.7c-0.5,0.1-1.9-0.4-2.9-0.7c-1.5-0.4-2.2-1.2-1.8-1.4c0.3-0.2,1.9,0,3,0.6
		c1.4,0.8,2,1.1,1.9,1.3l1.6,0.7L18.9,23.5z"/>
	
		<linearGradient id="SVGID_22_" gradientUnits="userSpaceOnUse" x1="118.169" y1="-111.5126" x2="122.7785" y2="-111.5126" gradientTransform="matrix(0.2309 0.9007 0.8069 -0.2069 80.0553 -109.8619)">
		<stop  offset="0" style="stop-color:#79BF00"/>
		<stop  offset="1" style="stop-color:#9CFF5F"/>
	</linearGradient>
	<path fill="url(#SVGID_22_)" d="M19.1,23.6l-0.6-1c-0.4-0.1-1-0.9-1.5-1.4c-0.7-0.8-0.5-1.5-0.1-1.5c0.4,0,1.3,0.6,1.6,1.4
		c0.3,1,0.5,1.4,0.2,1.5l0.6,1L19.1,23.6z"/>
	
		<linearGradient id="SVGID_23_" gradientUnits="userSpaceOnUse" x1="120.0015" y1="-3.2262" x2="124.6868" y2="-3.2262" gradientTransform="matrix(-0.3548 0.8594 0.77 0.3179 66.1797 -82.3651)">
		<stop  offset="0" style="stop-color:#79BF00"/>
		<stop  offset="1" style="stop-color:#9CFF5F"/>
	</linearGradient>
	<path fill="url(#SVGID_23_)" d="M19.1,23.6l0.5-1c-0.2-0.2,0-1.1,0.2-1.6c0.2-0.8,1-1.4,1.4-1.2c0.4,0.1,0.5,0.9-0.1,1.7
		c-0.7,0.9-1,1.3-1.3,1.3l-0.5,1L19.1,23.6z"/>
</g>
<g>
	
		<path fill="none" stroke="#88D700" stroke-width="0.1787" stroke-linecap="round" stroke-linejoin="round" stroke-miterlimit="10" d="
		M19.3,23.4c0,0-0.2-3.2,0.4-7.2c0.6-3.9,0.7-6.1,0.4-8.7c-0.4-2.5-0.5-3.1-0.5-4.1"/>
	<path fill="#88D700" d="M20.6,5.6l-0.9,0.6c0,0,0,0,0-0.1c0-0.1,0.9-0.6,1.1-0.7c0.4-0.3,0.5-0.5,0.8-0.6c0.3-0.1,0.3,0.1,0.3,0.1"
		/>
	<linearGradient id="SVGID_24_" gradientUnits="userSpaceOnUse" x1="20.967" y1="16.3256" x2="20.967" y2="14.099">
		<stop  offset="0" style="stop-color:#79BF00"/>
		<stop  offset="1" style="stop-color:#9CFF5F"/>
	</linearGradient>
	<path fill="url(#SVGID_24_)" d="M19.6,16.1l0.8-0.6c0,0,0.7-0.5,1.2-1.1c0.5-0.5,0.7-0.1,0.7-0.1s0,0.5-0.2,0.8
		c-0.2,0.3-0.5,0.5-1.4,0.6c-0.3,0-0.9,0.4-1,0.6C19.5,16.5,19.6,16.1,19.6,16.1z"/>
	
		<path fill="none" stroke="#88D700" stroke-width="0.1787" stroke-linecap="round" stroke-linejoin="round" stroke-miterlimit="10" d="
		M19.5,5.1c0,0-0.3,0-0.6-0.3c-0.2-0.2-0.4-0.6-0.4-0.6"/>
</g>
<path fill="none" stroke="#88D700" stroke-width="0.1354" stroke-linecap="round" stroke-linejoin="round" stroke-miterlimit="10" d="
	M18.8,2.5c0,0,0.6,0.2,0.7,1c0,0,0.6-0.9,0.9-1"/>
<g>
	
		<linearGradient id="SVGID_25_" gradientUnits="userSpaceOnUse" x1="-47.057" y1="5.919" x2="-45.9255" y2="5.919" gradientTransform="matrix(0.9722 -0.2341 0.2341 0.9722 62.5827 -14.1864)">
		<stop  offset="0" style="stop-color:#FFFFFF"/>
		<stop  offset="1" style="stop-color:#F2F2F2"/>
	</linearGradient>
	<path fill="url(#SVGID_25_)" stroke="#E5E5E5" stroke-width="3.366755e-02" stroke-miterlimit="10" d="M19.3,2.2
		c0-0.1-0.2,0-0.3,0.1c0,0,0,0-0.1,0.1c0,0,0,0,0,0C18.8,2.1,18.6,2,18.6,2c-0.1,0-0.1,0.2,0,0.3c0,0,0,0,0,0c0,0-0.1,0-0.1,0
		c-0.2,0-0.3,0.1-0.3,0.2c0,0.1,0.1,0.1,0.3,0.1c0.1,0,0.1,0,0.2,0c0,0,0,0,0,0c0.1,0.2,0.2,0.3,0.3,0.2c0.1,0,0.1-0.2,0-0.3
		c0,0,0,0,0,0c0,0,0.1,0,0.1-0.1C19.3,2.4,19.3,2.2,19.3,2.2z"/>
	<defs>
		<filter id="Adobe_OpacityMaskFilter" filterUnits="userSpaceOnUse" x="18.6" y="2.3" width="0.4" height="0.3">
			<feFlood  style="flood-color:white;flood-opacity:1" result="back"/>
			<feBlend  in="SourceGraphic" in2="back" mode="normal"/>
		</filter>
	</defs>
	<mask maskUnits="userSpaceOnUse" x="18.6" y="2.3" width="0.4" height="0.3" id="SVGID_26_">
		<g filter="url(#Adobe_OpacityMaskFilter)">
			<defs>
				<filter id="Adobe_OpacityMaskFilter_1_" filterUnits="userSpaceOnUse" x="18.6" y="2.3" width="0.4" height="0.3">
					<feFlood  style="flood-color:white;flood-opacity:1" result="back"/>
					<feBlend  in="SourceGraphic" in2="back" mode="normal"/>
				</filter>
			</defs>
			<mask maskUnits="userSpaceOnUse" x="18.6" y="2.3" width="0.4" height="0.3" id="SVGID_26_">
				<g filter="url(#Adobe_OpacityMaskFilter_1_)">
				</g>
			</mask>
			
				<radialGradient id="SVGID_27_" cx="-46.4646" cy="5.9383" r="0.1647" gradientTransform="matrix(0.9722 -0.2341 0.2341 0.9722 62.5827 -14.1864)" gradientUnits="userSpaceOnUse">
				<stop  offset="0" style="stop-color:#FFFFFF"/>
				<stop  offset="0.424" style="stop-color:#B2B2B2"/>
				<stop  offset="1" style="stop-color:#4D4D4D"/>
			</radialGradient>
			<path mask="url(#SVGID_26_)" fill="url(#SVGID_27_)" d="M19,2.4c0,0.1,0,0.2-0.1,0.2c-0.1,0-0.2,0-0.2-0.1c0-0.1,0-0.2,0.1-0.2
				C18.9,2.3,19,2.3,19,2.4z"/>
		</g>
	</mask>
	
		<radialGradient id="SVGID_28_" cx="-46.4646" cy="5.9383" r="0.1647" gradientTransform="matrix(0.9722 -0.2341 0.2341 0.9722 62.5827 -14.1864)" gradientUnits="userSpaceOnUse">
		<stop  offset="0" style="stop-color:#79BF00"/>
		<stop  offset="1" style="stop-color:#9CFF5F"/>
	</radialGradient>
	<path opacity="0.34" fill="url(#SVGID_28_)" d="M19,2.4c0,0.1,0,0.2-0.1,0.2c-0.1,0-0.2,0-0.2-0.1c0-0.1,0-0.2,0.1-0.2
		C18.9,2.3,19,2.3,19,2.4z"/>
	
		<linearGradient id="SVGID_29_" gradientUnits="userSpaceOnUse" x1="-46.5115" y1="5.8673" x2="-46.4373" y2="5.8673" gradientTransform="matrix(0.9722 -0.2341 0.2341 0.9722 62.5827 -14.1864)">
		<stop  offset="0" style="stop-color:#79BF00"/>
		<stop  offset="1" style="stop-color:#9CFF5F"/>
	</linearGradient>
	<path fill="url(#SVGID_29_)" d="M18.8,2.5C18.8,2.5,18.8,2.5,18.8,2.5L18.8,2.5C18.8,2.5,18.8,2.5,18.8,2.5l-0.1-0.2c0,0,0,0,0,0
		l0,0c0,0,0,0,0,0L18.8,2.5z"/>
	
		<linearGradient id="SVGID_30_" gradientUnits="userSpaceOnUse" x1="-46.5471" y1="5.7514" x2="-46.408" y2="5.7514" gradientTransform="matrix(0.9722 -0.2341 0.2341 0.9722 62.5827 -14.1864)">
		<stop  offset="0" style="stop-color:#FFFFFF"/>
		<stop  offset="1" style="stop-color:#F2F288"/>
	</linearGradient>
	<path fill="url(#SVGID_30_)" d="M18.8,2.3C18.8,2.3,18.8,2.3,18.8,2.3c-0.1,0.1-0.1,0.1-0.1,0C18.7,2.3,18.7,2.2,18.8,2.3
		C18.8,2.2,18.8,2.2,18.8,2.3z"/>
	
		<linearGradient id="SVGID_31_" gradientUnits="userSpaceOnUse" x1="-46.3354" y1="5.821" x2="-46.2796" y2="5.821" gradientTransform="matrix(0.9722 -0.2341 0.2341 0.9722 62.5827 -14.1864)">
		<stop  offset="0" style="stop-color:#FFFFFF"/>
		<stop  offset="1" style="stop-color:#F2F288"/>
	</linearGradient>
	<circle fill="url(#SVGID_31_)" cx="18.9" cy="2.3" r="0"/>
	
		<linearGradient id="SVGID_32_" gradientUnits="userSpaceOnUse" x1="-46.391" y1="5.9601" x2="-46.3354" y2="5.9601" gradientTransform="matrix(0.9722 -0.2341 0.2341 0.9722 62.5827 -14.1864)">
		<stop  offset="0" style="stop-color:#FFFFFF"/>
		<stop  offset="1" style="stop-color:#F2F288"/>
	</linearGradient>
	<circle fill="url(#SVGID_32_)" cx="18.9" cy="2.5" r="0"/>
	
		<linearGradient id="SVGID_33_" gradientUnits="userSpaceOnUse" x1="-46.5764" y1="5.9786" x2="-46.5207" y2="5.9786" gradientTransform="matrix(0.9722 -0.2341 0.2341 0.9722 62.5827 -14.1864)">
		<stop  offset="0" style="stop-color:#FFFFFF"/>
		<stop  offset="1" style="stop-color:#F2F288"/>
	</linearGradient>
	<circle fill="url(#SVGID_33_)" cx="18.7" cy="2.5" r="0"/>
	
		<linearGradient id="SVGID_34_" gradientUnits="userSpaceOnUse" x1="-46.6042" y1="5.8673" x2="-46.5486" y2="5.8673" gradientTransform="matrix(0.9722 -0.2341 0.2341 0.9722 62.5827 -14.1864)">
		<stop  offset="0" style="stop-color:#FFFFFF"/>
		<stop  offset="1" style="stop-color:#F2F288"/>
	</linearGradient>
	<circle fill="url(#SVGID_34_)" cx="18.7" cy="2.4" r="0"/>
</g>
<path fill="none" stroke="#88D700" stroke-width="0.1354" stroke-miterlimit="10" d="M19.5,3.3c0,0,0.3-0.7,0.1-1.3"/>
<g>
	
		<linearGradient id="SVGID_35_" gradientUnits="userSpaceOnUse" x1="85.2915" y1="-16.5286" x2="86.423" y2="-16.5286" gradientTransform="matrix(0.966 0.2587 -0.2587 0.966 -67.4906 -4.3026)">
		<stop  offset="0" style="stop-color:#FFFFFF"/>
		<stop  offset="1" style="stop-color:#F2F2F2"/>
	</linearGradient>
	<path fill="url(#SVGID_35_)" stroke="#E5E5E5" stroke-width="3.366755e-02" stroke-miterlimit="10" d="M20.3,1.9
		c0-0.1-0.2-0.1-0.3-0.1c0,0-0.1,0-0.1,0c0,0,0,0,0,0c0-0.2-0.1-0.3-0.1-0.3c-0.1,0-0.2,0.1-0.2,0.3c0,0,0,0,0,0c0,0,0,0-0.1,0
		c-0.2-0.1-0.3-0.1-0.3,0c0,0.1,0.1,0.2,0.2,0.3c0.1,0,0.1,0,0.2,0.1c0,0,0,0,0,0c0,0.2,0,0.3,0.1,0.3c0.1,0,0.2-0.1,0.2-0.3
		c0,0,0,0,0,0c0,0,0.1,0,0.2,0C20.2,2.1,20.3,2,20.3,1.9z"/>
	<defs>
		<filter id="Adobe_OpacityMaskFilter_2_" filterUnits="userSpaceOnUse" x="19.6" y="1.8" width="0.4" height="0.3">
			<feFlood  style="flood-color:white;flood-opacity:1" result="back"/>
			<feBlend  in="SourceGraphic" in2="back" mode="normal"/>
		</filter>
	</defs>
	<mask maskUnits="userSpaceOnUse" x="19.6" y="1.8" width="0.4" height="0.3" id="SVGID_36_">
		<g filter="url(#Adobe_OpacityMaskFilter_2_)">
			<defs>
				<filter id="Adobe_OpacityMaskFilter_3_" filterUnits="userSpaceOnUse" x="19.6" y="1.8" width="0.4" height="0.3">
					<feFlood  style="flood-color:white;flood-opacity:1" result="back"/>
					<feBlend  in="SourceGraphic" in2="back" mode="normal"/>
				</filter>
			</defs>
			<mask maskUnits="userSpaceOnUse" x="19.6" y="1.8" width="0.4" height="0.3" id="SVGID_36_">
				<g filter="url(#Adobe_OpacityMaskFilter_3_)">
				</g>
			</mask>
			
				<radialGradient id="SVGID_37_" cx="85.884" cy="-16.5094" r="0.1646" gradientTransform="matrix(0.966 0.2587 -0.2587 0.966 -67.4906 -4.3026)" gradientUnits="userSpaceOnUse">
				<stop  offset="0" style="stop-color:#FFFFFF"/>
				<stop  offset="0.424" style="stop-color:#B2B2B2"/>
				<stop  offset="1" style="stop-color:#4D4D4D"/>
			</radialGradient>
			<path mask="url(#SVGID_36_)" fill="url(#SVGID_37_)" d="M19.9,2c0,0.1-0.1,0.1-0.2,0.1c-0.1,0-0.2-0.1-0.1-0.2
				c0-0.1,0.1-0.1,0.2-0.1C19.9,1.9,19.9,1.9,19.9,2z"/>
		</g>
	</mask>
	
		<radialGradient id="SVGID_38_" cx="85.884" cy="-16.5094" r="0.1646" gradientTransform="matrix(0.966 0.2587 -0.2587 0.966 -67.4906 -4.3026)" gradientUnits="userSpaceOnUse">
		<stop  offset="0" style="stop-color:#79BF00"/>
		<stop  offset="1" style="stop-color:#9CFF5F"/>
	</radialGradient>
	<path opacity="0.34" fill="url(#SVGID_38_)" d="M19.9,2c0,0.1-0.1,0.1-0.2,0.1c-0.1,0-0.2-0.1-0.1-0.2c0-0.1,0.1-0.1,0.2-0.1
		C19.9,1.9,19.9,1.9,19.9,2z"/>
	
		<linearGradient id="SVGID_39_" gradientUnits="userSpaceOnUse" x1="85.8371" y1="-16.5803" x2="85.9112" y2="-16.5803" gradientTransform="matrix(0.966 0.2587 -0.2587 0.966 -67.4906 -4.3026)">
		<stop  offset="0" style="stop-color:#79BF00"/>
		<stop  offset="1" style="stop-color:#9CFF5F"/>
	</linearGradient>
	<path fill="url(#SVGID_39_)" d="M19.8,2C19.8,2,19.7,2,19.8,2L19.8,2C19.7,2,19.7,2,19.8,2l0-0.2c0,0,0,0,0,0l0,0c0,0,0,0,0,0
		L19.8,2z"/>
	
		<linearGradient id="SVGID_40_" gradientUnits="userSpaceOnUse" x1="85.8015" y1="-16.6962" x2="85.9406" y2="-16.6962" gradientTransform="matrix(0.966 0.2587 -0.2587 0.966 -67.4906 -4.3026)">
		<stop  offset="0" style="stop-color:#FFFFFF"/>
		<stop  offset="1" style="stop-color:#F2F288"/>
	</linearGradient>
	<path fill="url(#SVGID_40_)" d="M19.8,1.8C19.8,1.8,19.8,1.8,19.8,1.8c-0.1,0-0.1,0-0.1,0C19.7,1.7,19.8,1.7,19.8,1.8
		C19.8,1.7,19.9,1.8,19.8,1.8z"/>
	
		<linearGradient id="SVGID_41_" gradientUnits="userSpaceOnUse" x1="86.0132" y1="-16.6266" x2="86.0689" y2="-16.6266" gradientTransform="matrix(0.966 0.2587 -0.2587 0.966 -67.4906 -4.3026)">
		<stop  offset="0" style="stop-color:#FFFFFF"/>
		<stop  offset="1" style="stop-color:#F2F288"/>
	</linearGradient>
	<circle fill="url(#SVGID_41_)" cx="19.9" cy="1.9" r="0"/>
	
		<linearGradient id="SVGID_42_" gradientUnits="userSpaceOnUse" x1="85.9576" y1="-16.4876" x2="86.0132" y2="-16.4876" gradientTransform="matrix(0.966 0.2587 -0.2587 0.966 -67.4906 -4.3026)">
		<stop  offset="0" style="stop-color:#FFFFFF"/>
		<stop  offset="1" style="stop-color:#F2F288"/>
	</linearGradient>
	<circle fill="url(#SVGID_42_)" cx="19.8" cy="2" r="0"/>
	
		<linearGradient id="SVGID_43_" gradientUnits="userSpaceOnUse" x1="85.7722" y1="-16.469" x2="85.8278" y2="-16.469" gradientTransform="matrix(0.966 0.2587 -0.2587 0.966 -67.4906 -4.3026)">
		<stop  offset="0" style="stop-color:#FFFFFF"/>
		<stop  offset="1" style="stop-color:#F2F288"/>
	</linearGradient>
	<circle fill="url(#SVGID_43_)" cx="19.7" cy="2" r="0"/>
	
		<linearGradient id="SVGID_44_" gradientUnits="userSpaceOnUse" x1="85.7444" y1="-16.5803" x2="85.8" y2="-16.5803" gradientTransform="matrix(0.966 0.2587 -0.2587 0.966 -67.4906 -4.3026)">
		<stop  offset="0" style="stop-color:#FFFFFF"/>
		<stop  offset="1" style="stop-color:#F2F288"/>
	</linearGradient>
	<circle fill="url(#SVGID_44_)" cx="19.7" cy="1.9" r="0"/>
</g>
<g>
	<linearGradient id="SVGID_45_" gradientUnits="userSpaceOnUse" x1="19.9403" y1="2.4545" x2="21.0718" y2="2.4545">
		<stop  offset="0" style="stop-color:#FFFFFF"/>
		<stop  offset="1" style="stop-color:#F2F2F2"/>
	</linearGradient>
	<path fill="url(#SVGID_45_)" stroke="#E5E5E5" stroke-width="3.366755e-02" stroke-miterlimit="10" d="M21.1,2.3
		c0-0.1-0.2-0.1-0.3,0c0,0-0.1,0-0.1,0c0,0,0,0,0,0c0-0.2-0.1-0.3-0.2-0.3c-0.1,0-0.1,0.2-0.1,0.3c0,0,0,0,0,0c0,0-0.1,0-0.1,0
		c-0.2,0-0.3,0-0.3,0.1c0,0.1,0.1,0.2,0.3,0.2c0.1,0,0.1,0,0.2,0c0,0,0,0,0,0c0,0.2,0.1,0.3,0.2,0.3c0.1,0,0.1-0.2,0.1-0.3
		c0,0,0,0,0,0c0,0,0.1,0,0.1,0C21,2.5,21.1,2.4,21.1,2.3z"/>
	<defs>
		<filter id="Adobe_OpacityMaskFilter_4_" filterUnits="userSpaceOnUse" x="20.4" y="2.3" width="0.4" height="0.3">
			<feFlood  style="flood-color:white;flood-opacity:1" result="back"/>
			<feBlend  in="SourceGraphic" in2="back" mode="normal"/>
		</filter>
	</defs>
	<mask maskUnits="userSpaceOnUse" x="20.4" y="2.3" width="0.4" height="0.3" id="SVGID_46_">
		<g filter="url(#Adobe_OpacityMaskFilter_4_)">
			<defs>
				<filter id="Adobe_OpacityMaskFilter_5_" filterUnits="userSpaceOnUse" x="20.4" y="2.3" width="0.4" height="0.3">
					<feFlood  style="flood-color:white;flood-opacity:1" result="back"/>
					<feBlend  in="SourceGraphic" in2="back" mode="normal"/>
				</filter>
			</defs>
			<mask maskUnits="userSpaceOnUse" x="20.4" y="2.3" width="0.4" height="0.3" id="SVGID_46_">
				<g filter="url(#Adobe_OpacityMaskFilter_5_)">
				</g>
			</mask>
			<radialGradient id="SVGID_47_" cx="20.5327" cy="2.4738" r="0.1647" gradientUnits="userSpaceOnUse">
				<stop  offset="0" style="stop-color:#FFFFFF"/>
				<stop  offset="0.424" style="stop-color:#B2B2B2"/>
				<stop  offset="1" style="stop-color:#4D4D4D"/>
			</radialGradient>
			<ellipse mask="url(#SVGID_46_)" fill="url(#SVGID_47_)" cx="20.5" cy="2.5" rx="0.2" ry="0.1"/>
		</g>
	</mask>
	<radialGradient id="SVGID_48_" cx="20.5327" cy="2.4738" r="0.1647" gradientUnits="userSpaceOnUse">
		<stop  offset="0" style="stop-color:#79BF00"/>
		<stop  offset="1" style="stop-color:#9CFF5F"/>
	</radialGradient>
	<ellipse opacity="0.34" fill="url(#SVGID_48_)" cx="20.5" cy="2.5" rx="0.2" ry="0.1"/>
	<linearGradient id="SVGID_49_" gradientUnits="userSpaceOnUse" x1="20.4859" y1="2.4028" x2="20.56" y2="2.4028">
		<stop  offset="0" style="stop-color:#79BF00"/>
		<stop  offset="1" style="stop-color:#9CFF5F"/>
	</linearGradient>
	<path fill="url(#SVGID_49_)" d="M20.6,2.5C20.6,2.5,20.6,2.5,20.6,2.5L20.6,2.5C20.5,2.5,20.5,2.5,20.6,2.5l-0.1-0.2c0,0,0,0,0,0h0
		c0,0,0,0,0,0V2.5z"/>
	<linearGradient id="SVGID_50_" gradientUnits="userSpaceOnUse" x1="20.4503" y1="2.287" x2="20.5894" y2="2.287">
		<stop  offset="0" style="stop-color:#FFFFFF"/>
		<stop  offset="1" style="stop-color:#F2F288"/>
	</linearGradient>
	<ellipse fill="url(#SVGID_50_)" cx="20.5" cy="2.3" rx="0.1" ry="0"/>
	<linearGradient id="SVGID_51_" gradientUnits="userSpaceOnUse" x1="20.662" y1="2.3565" x2="20.7177" y2="2.3565">
		<stop  offset="0" style="stop-color:#FFFFFF"/>
		<stop  offset="1" style="stop-color:#F2F288"/>
	</linearGradient>
	<circle fill="url(#SVGID_51_)" cx="20.7" cy="2.4" r="0"/>
	<linearGradient id="SVGID_52_" gradientUnits="userSpaceOnUse" x1="20.6063" y1="2.4956" x2="20.662" y2="2.4956">
		<stop  offset="0" style="stop-color:#FFFFFF"/>
		<stop  offset="1" style="stop-color:#F2F288"/>
	</linearGradient>
	<circle fill="url(#SVGID_52_)" cx="20.6" cy="2.5" r="0"/>
	<linearGradient id="SVGID_53_" gradientUnits="userSpaceOnUse" x1="20.4209" y1="2.5141" x2="20.4766" y2="2.5141">
		<stop  offset="0" style="stop-color:#FFFFFF"/>
		<stop  offset="1" style="stop-color:#F2F288"/>
	</linearGradient>
	<circle fill="url(#SVGID_53_)" cx="20.4" cy="2.5" r="0"/>
	<linearGradient id="SVGID_54_" gradientUnits="userSpaceOnUse" x1="20.3931" y1="2.4028" x2="20.4487" y2="2.4028">
		<stop  offset="0" style="stop-color:#FFFFFF"/>
		<stop  offset="1" style="stop-color:#F2F288"/>
	</linearGradient>
	<circle fill="url(#SVGID_54_)" cx="20.4" cy="2.4" r="0"/>
</g>
<linearGradient id="SVGID_55_" gradientUnits="userSpaceOnUse" x1="160.5134" y1="5.7212" x2="160.7174" y2="3.7231" gradientTransform="matrix(-0.9948 -0.1016 -0.1016 0.9948 179.3818 21.1559)">
	<stop  offset="0" style="stop-color:#79BF00"/>
	<stop  offset="1" style="stop-color:#9CFF5F"/>
</linearGradient>
<path fill="url(#SVGID_55_)" d="M20.2,10.3l-0.6-0.6c0,0-0.5-0.5-0.9-1c-0.4-0.4-0.6-0.1-0.6-0.1S18,9,18.2,9.3
	c0.1,0.2,0.4,0.4,1.1,0.6c0.2,0,0.7,0.4,0.8,0.6C20.2,10.7,20.2,10.3,20.2,10.3z"/>
</svg>
