<?xml version="1.0" encoding="utf-8"?>
<!-- Generator: Adobe Illustrator 17.1.0, SVG Export Plug-In . SVG Version: 6.00 Build 0)  -->
<!DOCTYPE svg PUBLIC "-//W3C//DTD SVG 1.1//EN" "http://www.w3.org/Graphics/SVG/1.1/DTD/svg11.dtd">
<svg version="1.1" id="レイヤー_1" xmlns="http://www.w3.org/2000/svg" xmlns:xlink="http://www.w3.org/1999/xlink" x="0px"
	 y="0px" viewBox="0 0 50 40" enable-background="new 0 0 50 40" xml:space="preserve">
<radialGradient id="SVGID_1_" cx="24.6727" cy="20.4392" r="20.0208" gradientUnits="userSpaceOnUse">
	<stop  offset="0" style="stop-color:#FFFFFF"/>
	<stop  offset="1" style="stop-color:#FFFAF5"/>
</radialGradient>
<path display="none" fill="url(#SVGID_1_)" stroke="#000000" stroke-width="0.11" stroke-miterlimit="10" d="M8.2,24.8
	c0,0-1.7-4.3,0.7-6.6s4.7-1.8,6.2,0.1c1.4,1.9,2.4,7.1,3.1,9.3c1.1,3.5,4.9,7.5,10,7.9c5.1,0.4,10.3,0.2,14.3-3.7
	c3.6-3.5,3.8-7.3,3.8-9.5s-0.7-5.9-3.6-8.8c-2.4-2.3-3.7-3.3-5.4-4.8c-0.9-0.8-2.5-2.3-3.4-4c-0.9-1.6-0.8-2.8-1.3-2.8
	S31.9,3.3,32,4.4c0.1,1.4,0.4,2.5,0.7,3.1c0.8,2.2,2.6,4.1,3.4,4.7s3.1,3.1,4,4.5c1.2,2,1.8,4.4,0.9,7.4c-1.1,3.5-4.4,6.7-9.8,6.5
	c-4.7-0.2-6.9-1.1-8.5-4.2c-1.4-2.8-1.3-5.9-2.6-8.9s-4.7-5.3-7.9-5.3c-3.5,0-5.5,1.1-7,3.2c-2,2.7-2.5,5.9-1.2,9.2
	c0.9,2.2,1.3,2.8,3,5c1.7,2.3,2.4,4,2.6,5.2c0.3,1.6-0.6,4.7,0,4s0.8-1.7,0.9-2.4c0.1-0.8,0.6-3,0.1-5.1C10,29.1,8.7,25.9,8.2,24.8z
	"/>
<linearGradient id="SVGID_2_" gradientUnits="userSpaceOnUse" x1="16.2309" y1="47.1598" x2="16.2309" y2="40.1806" gradientTransform="matrix(0.9437 -0.3307 0.3307 0.9437 4.9757 -27.1944)">
	<stop  offset="0" style="stop-color:#FFFFFF"/>
	<stop  offset="1" style="stop-color:#FFDFBF"/>
</linearGradient>
<path fill="url(#SVGID_2_)" stroke="#000000" stroke-width="0.105" stroke-miterlimit="10" d="M45.2,8.7l-18.6,6.5
	c-1.8,0.6-3.8-0.3-4.4-2.2c-0.6-1.8,0.3-3.8,2.1-4.4l18.6-6.5c1.8-0.6,3.8,0.3,4.4,2.2C47.9,6.1,47,8.1,45.2,8.7z"/>
<path fill="#FFE09F" stroke="#000000" stroke-width="0.105" stroke-miterlimit="10" d="M3.6,25.2c-2.2-0.5-2.6-3.5-2.4-4.4l0.4-1.9
	c0.2-0.9,1.6-3.4,4-2.9l27.1,7c1.8,0.4,2.1,3,1.6,5l0,0.1c-0.5,2.2-1.2,3.6-2.9,3.2L3.6,25.2z"/>
<linearGradient id="SVGID_3_" gradientUnits="userSpaceOnUse" x1="-13.3423" y1="11.4097" x2="-5.5723" y2="11.4097" gradientTransform="matrix(-0.2257 0.9742 -0.869 -0.2013 18.0047 33.3985)">
	<stop  offset="0" style="stop-color:#FFFFFF"/>
	<stop  offset="1" style="stop-color:#FFDFBF"/>
</linearGradient>
<path fill="url(#SVGID_3_)" stroke="#000000" stroke-width="0.105" stroke-miterlimit="10" d="M17.8,25.1l0.7-4.2
	c0,0,0.2-0.7-0.3-0.8L6.2,17c-3.2-0.7-3.6,1.9-3.8,2.7l-0.2,0.8c-0.2,0.7-0.4,3.5,2.2,4.1l12.2,2.7l0.2,0c0.4,0.1,0.6-0.6,0.6-0.6
	L17.8,25.1"/>
<linearGradient id="SVGID_4_" gradientUnits="userSpaceOnUse" x1="-12.8377" y1="-7.0364" x2="-5.7994" y2="-7.0364" gradientTransform="matrix(-0.2257 0.9742 -0.869 -0.2013 18.0047 33.3985)">
	<stop  offset="0" style="stop-color:#FFFFFF"/>
	<stop  offset="1" style="stop-color:#FFDFBF"/>
</linearGradient>
<path fill="url(#SVGID_4_)" stroke="#000000" stroke-width="0.105" stroke-miterlimit="10" d="M18.2,26.7c-0.1,0.4,0.2,0.8,0.2,0.8
	l0.3,0.2l12.6,2.9c1.6,0.4,2-0.7,2.4-2.5l0-0.1c0.4-1.7,0.2-3.8-1.5-4.2l-12.1-3c-0.1,0-0.7-0.1-0.9,0.6L18.2,26.7z"/>
<linearGradient id="SVGID_5_" gradientUnits="userSpaceOnUse" x1="12.8172" y1="-4.3319" x2="16.6413" y2="-4.3319" gradientTransform="matrix(0.1985 0.9801 -0.9801 0.1985 20.0031 13.0114)">
	<stop  offset="0" style="stop-color:#FFFFFF"/>
	<stop  offset="1" style="stop-color:#BD9A2D"/>
</linearGradient>
<path opacity="0.39" fill="url(#SVGID_5_)" stroke="#000000" stroke-width="0.105" stroke-miterlimit="10" d="M28.5,27.9
	c-0.8,0.8-2,0.8-2.7,0c-0.7-0.7-0.7-2,0.1-2.7c0.8-0.8,2-0.8,2.7,0C29.3,26,29.3,27.2,28.5,27.9z"/>
<linearGradient id="SVGID_6_" gradientUnits="userSpaceOnUse" x1="5.4549" y1="11.706" x2="9.2793" y2="11.706" gradientTransform="matrix(0.1985 0.9801 -0.9801 0.1985 20.0031 13.0114)">
	<stop  offset="0" style="stop-color:#FFFFFF"/>
	<stop  offset="1" style="stop-color:#BD9A2D"/>
</linearGradient>
<path opacity="0.39" fill="url(#SVGID_6_)" stroke="#000000" stroke-width="0.105" stroke-miterlimit="10" d="M11.3,23.9
	c-0.8,0.8-2,0.8-2.7,0c-0.7-0.7-0.7-2,0.1-2.7c0.8-0.8,2-0.8,2.7,0C12.1,21.9,12.1,23.2,11.3,23.9z"/>
<path fill="#FFE09F" stroke="#000000" stroke-width="0.105" stroke-miterlimit="10" d="M43,1.3L23.7,8.1c-2,0.7-3,2.9-2.3,4.9
	l0.3,0.7c0.7,2,2.9,3,4.9,2.3l19.3-6.8c2-0.7,3-2.9,2.3-4.9l-0.3-0.7C47.2,1.6,45,0.6,43,1.3z M45.2,8.7l-18.6,6.5
	c-1.8,0.6-3.8-0.3-4.4-2.2c-0.6-1.8,0.3-3.8,2.1-4.4l18.6-6.5c1.8-0.6,3.8,0.3,4.4,2.2C47.9,6.1,47,8.1,45.2,8.7z"/>
<linearGradient id="SVGID_7_" gradientUnits="userSpaceOnUse" x1="32.5069" y1="8.7898" x2="36.6727" y2="8.7898">
	<stop  offset="0" style="stop-color:#FFFFFF"/>
	<stop  offset="1" style="stop-color:#BD9A2D"/>
</linearGradient>
<circle opacity="0.39" fill="url(#SVGID_7_)" stroke="#000000" stroke-width="0.105" stroke-miterlimit="10" cx="34.6" cy="8.8" r="2.1"/>
</svg>
