<?xml version="1.0" encoding="utf-8"?>
<!-- Generator: Adobe Illustrator 17.1.0, SVG Export Plug-In . SVG Version: 6.00 Build 0)  -->
<!DOCTYPE svg PUBLIC "-//W3C//DTD SVG 1.1//EN" "http://www.w3.org/Graphics/SVG/1.1/DTD/svg11.dtd">
<svg version="1.1" id="レイヤー_1" xmlns="http://www.w3.org/2000/svg" xmlns:xlink="http://www.w3.org/1999/xlink" x="0px"
	 y="0px" viewBox="0 0 50 40" enable-background="new 0 0 50 40" xml:space="preserve">
<radialGradient id="SVGID_1_" cx="24.6727" cy="20.4392" r="20.0208" gradientUnits="userSpaceOnUse">
	<stop  offset="0" style="stop-color:#FFFFFF"/>
	<stop  offset="1" style="stop-color:#FFFAF5"/>
</radialGradient>
<path display="none" fill="url(#SVGID_1_)" stroke="#000000" stroke-width="0.11" stroke-miterlimit="10" d="M8.2,24.8
	c0,0-1.7-4.3,0.7-6.6s4.7-1.8,6.2,0.1c1.4,1.9,2.4,7.1,3.1,9.3c1.1,3.5,4.9,7.5,10,7.9c5.1,0.4,10.3,0.2,14.3-3.7
	c3.6-3.5,3.8-7.3,3.8-9.5s-0.7-5.9-3.6-8.8c-2.4-2.3-3.7-3.3-5.4-4.8c-0.9-0.8-2.5-2.3-3.4-4c-0.9-1.6-0.8-2.8-1.3-2.8
	S31.9,3.3,32,4.4c0.1,1.4,0.4,2.5,0.7,3.1c0.8,2.2,2.6,4.1,3.4,4.7s3.1,3.1,4,4.5c1.2,2,1.8,4.4,0.9,7.4c-1.1,3.5-4.4,6.7-9.8,6.5
	c-4.7-0.2-6.9-1.1-8.5-4.2c-1.4-2.8-1.3-5.9-2.6-8.9s-4.7-5.3-7.9-5.3c-3.5,0-5.5,1.1-7,3.2c-2,2.7-2.5,5.9-1.2,9.2
	c0.9,2.2,1.3,2.8,3,5c1.7,2.3,2.4,4,2.6,5.2c0.3,1.6-0.6,4.7,0,4s0.8-1.7,0.9-2.4c0.1-0.8,0.6-3,0.1-5.1C10,29.1,8.7,25.9,8.2,24.8z
	"/>
<linearGradient id="SVGID_2_" gradientUnits="userSpaceOnUse" x1="44.0296" y1="-13.1354" x2="58.7282" y2="-21.6216" gradientTransform="matrix(0.9326 0.3609 -0.3609 0.9326 -45.9324 14.1418)">
	<stop  offset="0" style="stop-color:#FFFFFF"/>
	<stop  offset="1" style="stop-color:#FFE1CD"/>
</linearGradient>
<path fill="url(#SVGID_2_)" stroke="#AF9B79" stroke-width="0.1389" stroke-miterlimit="10" d="M12.3,14.3c0,0-4.1,2.1-5.9,3.1
	c-1.8,0.9-4.6-0.5-6.2,0.9c-1,0.9,2.2,1.3,2.8,1.6c0.6,0.3-1.6,0.5,0,0.8c1.4,0.3,2.6-0.7,3.6-0.8c2.7-0.4,6-1.3,6-1.3l1.9-1.3
	l2.3-1.5l-1.5-3.1l-2.1-0.4"/>
<linearGradient id="SVGID_3_" gradientUnits="userSpaceOnUse" x1="7.2182" y1="22.846" x2="13.3213" y2="12.2753">
	<stop  offset="0" style="stop-color:#FFFAE8"/>
	<stop  offset="0.2695" style="stop-color:#FFF3E3"/>
	<stop  offset="0.6471" style="stop-color:#FFE1D3"/>
	<stop  offset="1" style="stop-color:#FFCAC0"/>
</linearGradient>
<path opacity="0.46" fill="url(#SVGID_3_)" d="M16.1,15.6l-1.2-2.4h-2.4l-0.6,1.4c0,0-3.1,1.5-5.1,2.5l-0.7,0.7c0,0-0.7,0.4-0.8,1.2
	c-0.1,0.8-1.8,1.6-1.8,1.6l0.7-0.1c0.7-0.2,1.4-0.6,1.9-0.6c2.7-0.4,6-1.3,6-1.3l1.9-1.3l2-1.3L16.1,15.6z"/>
<linearGradient id="SVGID_4_" gradientUnits="userSpaceOnUse" x1="42.2657" y1="27.5721" x2="35.5155" y2="15.8805" gradientTransform="matrix(0.9998 -1.850000e-02 1.850000e-02 0.9998 1.8579 1.0682)">
	<stop  offset="0" style="stop-color:#FFF2E3"/>
	<stop  offset="1" style="stop-color:#FFE1CD"/>
</linearGradient>
<path fill="url(#SVGID_4_)" stroke="#AF9B79" stroke-width="0.1389" stroke-miterlimit="10" d="M37.4,17.6c0,0,1.3,2.8,1.6,3.2
	c0.3,0.4,4.7-0.6,6-0.4c0,0,1-0.7,1.9-0.3c1,0.4,0.3,1.7,1.2,2.5c0.8,0.8,2.1,2.5,0.9,2.5c-1.2,0-2.7-1.3-3.6-1.7
	c-1-0.4-5.8,2-7,2.1c-0.8,0.1-3.2-0.5-4.5-4.4C32.4,17.3,37.4,17.6,37.4,17.6z"/>
<linearGradient id="SVGID_5_" gradientUnits="userSpaceOnUse" x1="41.8719" y1="18.4201" x2="40.5462" y2="25.9385">
	<stop  offset="0" style="stop-color:#FFF2D7"/>
	<stop  offset="1" style="stop-color:#FFCAC0"/>
</linearGradient>
<path opacity="0.53" fill="url(#SVGID_5_)" d="M48.4,24.7c-0.7-0.5-1.8-1.4-2.3-2.3c-0.6-0.9-2.7,0.2-2.7,0.2c-1,0.4-4.1,1-4.5,0.9
	c-0.5-0.1,0.1-2.9,0.1-2.9l0,0c-0.5-0.9-1.4-2.9-1.4-2.9s-5-0.4-3.7,3.5c1.3,3.9,3.7,4.4,4.5,4.4c1.3-0.1,6.1-2.5,7-2.1
	c0.9,0.4,2.2,1.5,3.3,1.7C48.8,25,48.8,24.9,48.4,24.7z"/>
<linearGradient id="SVGID_6_" gradientUnits="userSpaceOnUse" x1="101.6881" y1="-121.5436" x2="104.9935" y2="-123.452" gradientTransform="matrix(0.4739 0.8806 -0.8806 0.4739 -144.2886 -16.7935)">
	<stop  offset="0" style="stop-color:#FFFFFF"/>
	<stop  offset="1" style="stop-color:#FCD7D7"/>
</linearGradient>
<polygon fill="url(#SVGID_6_)" points="13.2,18.7 13.2,14 10.9,15.2 12,18.4 "/>
<linearGradient id="SVGID_7_" gradientUnits="userSpaceOnUse" x1="-0.4567" y1="23.9284" x2="39.783" y2="10.074" gradientTransform="matrix(0.9998 -1.850000e-02 1.850000e-02 0.9998 1.8579 1.0682)">
	<stop  offset="0" style="stop-color:#FFFFFF"/>
	<stop  offset="1" style="stop-color:#FFE1CD"/>
</linearGradient>
<path fill="url(#SVGID_7_)" stroke="#AF9B79" stroke-width="0.1389" stroke-miterlimit="10" d="M18.1,20.2l-0.5,1.1
	c-0.1,0.8-2.4,4.2-3.1,5.7c-0.5,1.1-3,3.5-4.6,5.1c0,0-1,0.4-2.4,0.3c-2.1-0.2-1.9,0-2.8,0.1c-0.9,0,0.7-1.5,1.3-1.6
	c0.6-0.2,2.6-0.8,2.6-0.8s2.6-4.6,3.4-6.2c1.2-2.5,0.8-2.8,0.6-5.3c-0.2-2.5,0.7-3.2,0.7-3.2s0.1,0.1,0.1,0
	c-0.1-0.5-0.2-0.8-0.2-0.8s-1.3,2-2.6,1.7c-1.8-0.3-0.7,0.3-1.9-0.2c-0.6-0.2-0.2-0.4-1-0.6c-1.7-0.4-1.3-0.7-1.2-1.1
	c0.5-1.4-1.5-0.6-2.7-3.1C2.8,9.4,2.8,7.2,3.3,5.8c1.1-2.9,3-3.7,3-3.7c1.1-0.8,3.1-1.2,5-0.9c2.7,0.6,3.9,2.2,4.7,4.3
	c0.7,2,0.4,4.4,0.4,4.4s3.8,0.4,6.1,0.9c2,0.5,3.6,0.7,3.6,0.7s2.2,0.4,5.1,0.4c7.4-0.1,4.9,8.7,4.9,8.7s-0.1,3.8-0.6,1.2
	c-0.5-2.7,0.6,2,1,3.2c0.1,0.5,1.2,3.4,1.2,3.4s4.4-0.9,5.4-1.4c1-0.6,0.3-1.7,1.1-1.8c0.8-0.1,3,2.1,3.9,2.6
	c0.9,0.5,0.2,1.1,0.2,1.7c0,0.6-2.2-0.3-3-0.4c-0.7-0.1-6.9,4-7.3,4.1c-1,0.4-2.1,0.3-2.1,0.3c-3.3-0.2-6.8-8.4-6.8-8.8
	c-0.3-1.6-3.9-2.2-4.5-2.4l-1.7-0.4C21.8,21.4,18.1,20.2,18.1,20.2L18.1,20.2z"/>
<linearGradient id="SVGID_8_" gradientUnits="userSpaceOnUse" x1="-26.9709" y1="1.4324" x2="-24.1864" y2="1.4324" gradientTransform="matrix(0.9657 -0.2597 0.2597 0.9657 35.0027 6.9691)">
	<stop  offset="0" style="stop-color:#FFF2D7"/>
	<stop  offset="1" style="stop-color:#FFCAC0"/>
</linearGradient>
<path opacity="0.39" fill="url(#SVGID_8_)" d="M12.3,15.7c0,0-2.1,0.1-3.3-1.4c0,0,0.1,0.7,1.1,1.6C10.6,16.2,12.3,15.7,12.3,15.7z"
	/>
<linearGradient id="SVGID_9_" gradientUnits="userSpaceOnUse" x1="-29.3973" y1="-1.4924" x2="-27.9203" y2="-1.4924" gradientTransform="matrix(0.9657 -0.2597 0.2597 0.9657 35.0027 6.9691)">
	<stop  offset="0" style="stop-color:#FFF2D7"/>
	<stop  offset="1" style="stop-color:#FFCAC0"/>
</linearGradient>
<path fill="url(#SVGID_9_)" d="M6.2,12.6c0,0,0.7-0.8,1.2-0.5c0.5,0.3,0.3,1.5,0.3,1.5S6,13.7,6.2,12.6z"/>
<ellipse transform="matrix(-0.658 0.753 -0.753 -0.658 21.4179 16.1741)" fill="#FFFFFF" cx="7" cy="13" rx="0.7" ry="0.7"/>
<linearGradient id="SVGID_10_" gradientUnits="userSpaceOnUse" x1="-29.1922" y1="-1.3455" x2="-28.0696" y2="-1.3455" gradientTransform="matrix(0.9657 -0.2597 0.2597 0.9657 35.0027 6.9691)">
	<stop  offset="0" style="stop-color:#FFC23F"/>
	<stop  offset="1" style="stop-color:#794900"/>
</linearGradient>
<path fill="url(#SVGID_10_)" d="M7.2,12.8c0.3,0.2,0.5,0.5,0.4,0.7c-0.1,0.2-0.5,0.2-0.8,0c-0.3-0.2-0.5-0.5-0.4-0.7
	C6.5,12.5,6.9,12.5,7.2,12.8z"/>
<linearGradient id="SVGID_11_" gradientUnits="userSpaceOnUse" x1="-80.9182" y1="2.7613" x2="-78.184" y2="2.7613" gradientTransform="matrix(0.8719 -0.4897 0.4897 0.8719 73.7678 -29.8072)">
	<stop  offset="0" style="stop-color:#FFF2D7"/>
	<stop  offset="1" style="stop-color:#FFCAC0"/>
</linearGradient>
<path opacity="0.66" fill="url(#SVGID_11_)" d="M4.7,12.5c0,0,0.3-0.9,1.1-1.3c0,0,0.4-0.4,1.1-0.3"/>
<linearGradient id="SVGID_12_" gradientUnits="userSpaceOnUse" x1="-7.5184" y1="-41.1875" x2="-4.046" y2="-41.1875" gradientTransform="matrix(1.0021 -0.1768 0.2109 1.1956 26.7995 58.8736)">
	<stop  offset="0" style="stop-color:#FFF2D7"/>
	<stop  offset="1" style="stop-color:#FFCAC0"/>
</linearGradient>
<path opacity="0.39" fill="url(#SVGID_12_)" d="M10.4,9.7c0,0,1.6-1.4,2.6-0.2c0.9,1,0.9,2.2,0.3,2.8c-0.6,0.6,1.1,0,0.8-1.7
	c-0.3-1.7-1.6-1.9-2.1-1.9C11.6,8.8,10.4,9.7,10.4,9.7z"/>
<linearGradient id="SVGID_13_" gradientUnits="userSpaceOnUse" x1="-23.6305" y1="-2.3176" x2="-22.4539" y2="-2.3176" gradientTransform="matrix(0.9657 -0.2597 0.2597 0.9657 35.0027 6.9691)">
	<stop  offset="0" style="stop-color:#FFF2D7"/>
	<stop  offset="1" style="stop-color:#FFCAC0"/>
</linearGradient>
<path fill="url(#SVGID_13_)" d="M11.3,9.9c0,0,0.8-0.2,1.3,0.4c0.4,0.6-0.1,1.3-0.1,1.3s-0.8-0.8-0.4-0.9
	C12.5,10.6,11.3,9.9,11.3,9.9z"/>
<linearGradient id="SVGID_14_" gradientUnits="userSpaceOnUse" x1="29.0287" y1="20.978" x2="26.4186" y2="35.7804">
	<stop  offset="0" style="stop-color:#FFF2D7"/>
	<stop  offset="1" style="stop-color:#FFCAC0"/>
</linearGradient>
<path opacity="0.46" fill="url(#SVGID_14_)" d="M45.2,29.1c0.7,0.1,3,0.9,3,0.4c0-0.3,0.1-0.5,0.2-0.8c-0.2,0.1-1.2,0.4-2.3-0.1
	c-1.4-0.6-4.7,1.8-7.8,3.4c-3.1,1.7-4.8-0.9-6.1-3.7c-1.3-2.8-2.6-5.4-2.6-5.4s-9.3-3.3-10.8-3.7c-1.5-0.4-2.4-0.7-2.7,1.3
	c-0.6,4-5.3,9.8-6.3,10.7c-1,0.9-3.3,0.9-3.3,0.9l0,0.1c0.3,0,0.7,0,1.2,0.1C9,32.4,9.9,32,9.9,32c1.6-1.6,4.1-4,4.6-5.1
	c0.7-1.5,3-4.8,3.1-5.7l0.5-1.1l0,0c0,0,3.7,1.3,4.7,1.7l1.7,0.4c0.6,0.2,4.2,0.8,4.5,2.4c0.1,0.4,3.6,8.7,6.8,8.8
	c0,0,1.1,0.1,2.1-0.3C38.3,33.1,44.4,29,45.2,29.1z"/>
<linearGradient id="SVGID_15_" gradientUnits="userSpaceOnUse" x1="-11.3943" y1="9.9672" x2="-0.1226" y2="9.9672" gradientTransform="matrix(0.9657 -0.2597 0.2597 0.9657 35.0027 6.9691)">
	<stop  offset="0" style="stop-color:#FFFFFF"/>
	<stop  offset="0.3336" style="stop-color:#FBFBFB"/>
	<stop  offset="0.6287" style="stop-color:#F1F1F1"/>
	<stop  offset="0.9082" style="stop-color:#DFDFDF"/>
	<stop  offset="1" style="stop-color:#D7D7D7"/>
</linearGradient>
<path fill="url(#SVGID_15_)" stroke="#AF9B79" stroke-width="0.1389" stroke-miterlimit="10" d="M29.3,25.6c0,0-3.1-1.7-2-7.8
	c0.9-5.5,1.9-5.8,2.8-6.1c0.9-0.3,3.5-0.2,5.3,1.3c1.8,1.5,2.3,4.7,2.4,5.4c0,0.7-0.1,4-1.4,5.2C35.4,24.7,32.3,21.2,29.3,25.6z"/>
<g>
	<linearGradient id="SVGID_16_" gradientUnits="userSpaceOnUse" x1="12.6892" y1="18.3597" x2="12.6484" y2="18.5906">
		<stop  offset="0" style="stop-color:#FFF2D7"/>
		<stop  offset="1" style="stop-color:#FFCAC0"/>
	</linearGradient>
	<path opacity="0.46" fill="url(#SVGID_16_)" d="M12.7,18.6c0,0,0-0.1,0-0.2C12.7,18.4,12.7,18.5,12.7,18.6z"/>
	<linearGradient id="SVGID_17_" gradientUnits="userSpaceOnUse" x1="12.9383" y1="12.0976" x2="11.8839" y2="18.0775">
		<stop  offset="0" style="stop-color:#FFF2D7"/>
		<stop  offset="1" style="stop-color:#FFCAC0"/>
	</linearGradient>
	<path opacity="0.46" fill="url(#SVGID_17_)" d="M12.8,13.6c-0.1,0.8-1.3,1.4-1.9,2.1c-0.2,0.2-0.4,0.3-0.4,0.3c0.1,0,0.2,0,0.3,0
		c1.2-0.1,2.3-1.8,2.3-1.8s0.1,0.4,0.2,0.8c0,0.1-0.1,0-0.1,0s-0.9,0.7-0.7,3.1c-0.1-1.2,1.3-3.1,1.6-3.9c0.4-1.4,0.3-1.9,0.3-1.9
		S13,12.5,12.8,13.6z"/>
</g>
<g opacity="0.46">
	<linearGradient id="SVGID_18_" gradientUnits="userSpaceOnUse" x1="8.1459" y1="6.2106" x2="22.5927" y2="6.2106">
		<stop  offset="0" style="stop-color:#FFF2D7"/>
		<stop  offset="1" style="stop-color:#FFCAC0"/>
	</linearGradient>
	<path fill="url(#SVGID_18_)" d="M22.6,10.8c-0.1,0-0.2,0-0.3-0.1c-2.3-0.5-6.1-0.9-6.1-0.9s0.3-2.4-0.4-4.4
		c-0.7-2.1-1.9-3.7-4.7-4.3c-1-0.2-2.1-0.2-3,0c0.8-0.1,2.3,0,3.5,0.4c1.5,0.6,3.5,2.4,3.8,5.3c0.2,3.1-0.8,5.4-0.1,4.2
		c0.7-1.1,5.8-0.3,5.8-0.3C21.5,10.8,22.1,10.8,22.6,10.8z"/>
	<linearGradient id="SVGID_19_" gradientUnits="userSpaceOnUse" x1="7.5881" y1="1.3335" x2="7.6168" y2="1.3335">
		<stop  offset="0" style="stop-color:#FFF2D7"/>
		<stop  offset="1" style="stop-color:#FFCAC0"/>
	</linearGradient>
	<path fill="url(#SVGID_19_)" d="M7.6,1.3C7.6,1.3,7.6,1.3,7.6,1.3C7.6,1.3,7.6,1.3,7.6,1.3C7.6,1.3,7.6,1.3,7.6,1.3z"/>
</g>
</svg>
