<?xml version="1.0" encoding="utf-8"?>
<!-- Generator: Adobe Illustrator 17.1.0, SVG Export Plug-In . SVG Version: 6.00 Build 0)  -->
<!DOCTYPE svg PUBLIC "-//W3C//DTD SVG 1.1//EN" "http://www.w3.org/Graphics/SVG/1.1/DTD/svg11.dtd">
<svg version="1.1" id="レイヤー_1" xmlns="http://www.w3.org/2000/svg" xmlns:xlink="http://www.w3.org/1999/xlink" x="0px"
	 y="0px" viewBox="105.2 322.1 788.8 356.5" enable-background="new 105.2 322.1 788.8 356.5" xml:space="preserve">
<g>
	<g>
		<path fill="#004098" d="M362.3,386.3h34c49.2,0,68.7,28.3,68.7,68.5c0,49.8-33.3,68.9-78.7,68.9h-24V386.3z M375.9,511.8h11.2
			c39,0,64.4-15.7,64.4-57.9c0-41.9-25-55.9-55.7-55.9h-19.9L375.9,511.8L375.9,511.8z"/>
		<path fill="#004098" d="M493.6,386.3h32.7c22.4,0,43.5,7.5,43.5,33.9c0,17.5-8.1,27.9-25,31.3v0.4c17.3,3.1,29.1,14.6,29.1,32.7
			c0,29.9-24.4,39.2-52.9,39.2h-27.4V386.3z M507.2,511.8h14.2c18.3,0,39-4.9,39-26.8c0-24.4-21.1-27-41.1-27h-12L507.2,511.8
			L507.2,511.8z M507.6,446.3h15.2c14.4,0,33.5-3.7,33.5-25.6c0-19.9-18.3-22.6-29.9-22.6h-18.7V446.3z"/>
		<path fill="#004098" d="M698.5,401.6c-8.7-4.5-21.1-5.9-30.7-5.9c-35.6,0-55.7,25.2-55.7,59.2c0,34.6,19.5,59.2,55.7,59.2
			c9,0,22.8-1.2,30.7-5.9l0.8,11.8c-7.5,4.5-22.8,5.9-31.5,5.9c-43.3,0-69.3-28.5-69.3-71c0-41.7,26.8-71,69.3-71
			c8.1,0,24.4,1.4,31.5,5.1L698.5,401.6z"/>
		<path fill="#004098" d="M734.4,386.3H748v125.6h55.1v11.8h-68.7V386.3z"/>
		<path fill="#004098" d="M819.2,506.1c8.1,5.1,17.5,8.1,30.3,8.1c16.9,0,30.9-8.7,30.9-28.1c0-27-63-30.3-63-66.3
			c0-22,19.3-35.8,43.5-35.8c6.7,0,17.5,1,27,4.5l-2.2,12.4c-6.1-3.3-15.7-5.1-25-5.1c-14.2,0-29.7,5.9-29.7,23.6
			c0,27.6,63,27.7,63,67.9C894,515,870.2,526,849,526c-13.4,0-23.8-2.8-31.1-5.9L819.2,506.1z"/>
	</g>
	<g>
		<path fill="#004098" d="M367,545.7h10.2c11.5,0,21.6,3.9,21.6,18.7c0,14.9-10.1,18.7-21.6,18.7H367V545.7z M374.5,577.2h4.2
			c6.3,0,12.3-4.7,12.3-12.8c0-8.2-6.1-12.8-12.3-12.8h-4.2L374.5,577.2L374.5,577.2z"/>
		<path fill="#004098" d="M406.4,557c2.8-1.3,6.5-2.1,9.6-2.1c8.4,0,11.9,3.5,11.9,11.6v3.6c0,2.8,0.1,4.9,0.1,6.9
			c0.1,2.1,0.2,4,0.3,6.2H422c-0.3-1.4-0.3-3.3-0.3-4.1h-0.1c-1.7,3.1-5.3,4.8-8.5,4.8c-4.9,0-9.7-3-9.7-8.2c0-4.1,2-6.5,4.7-7.9
			c2.7-1.3,6.3-1.6,9.3-1.6h4c0-4.5-2-6-6.2-6c-3.1,0-6.1,1.2-8.5,3L406.4,557z M414.8,578.5c2.2,0,3.9-1,5-2.5
			c1.2-1.6,1.5-3.5,1.5-5.7h-3.1c-3.2,0-8,0.5-8,4.8C410.3,577.5,412.2,578.5,414.8,578.5z"/>
		<path fill="#004098" d="M437.4,560.8h-5.3v-5.3h5.3V550l7.2-2.3v7.8h6.4v5.3h-6.4v12.9c0,2.4,0.6,4.6,3.4,4.6
			c1.3,0,2.5-0.3,3.3-0.8l0.2,5.7c-1.5,0.4-3.2,0.6-5.3,0.6c-5.6,0-8.7-3.5-8.7-9L437.4,560.8L437.4,560.8z"/>
		<path fill="#004098" d="M457.1,557c2.8-1.3,6.5-2.1,9.6-2.1c8.4,0,11.9,3.5,11.9,11.6v3.6c0,2.8,0.1,4.9,0.1,6.9
			c0.1,2.1,0.2,4,0.3,6.2h-6.3c-0.3-1.4-0.3-3.3-0.3-4.1h-0.1c-1.7,3.1-5.3,4.8-8.5,4.8c-4.9,0-9.7-3-9.7-8.2c0-4.1,2-6.5,4.7-7.9
			c2.7-1.3,6.3-1.6,9.3-1.6h4c0-4.5-2-6-6.2-6c-3.1,0-6.1,1.2-8.5,3L457.1,557z M465.6,578.5c2.2,0,3.9-1,5-2.5
			c1.2-1.6,1.5-3.5,1.5-5.7H469c-3.2,0-8,0.5-8,4.8C461,577.5,463,578.5,465.6,578.5z"/>
		<path fill="#004098" d="M485.8,542.9h7.2V559h0.1c2-2.6,4.5-4.2,8.3-4.2c8.5,0,11.6,6.8,11.6,14.4c0,7.6-3.1,14.5-11.6,14.5
			c-3.1,0-6.4-1.1-8.5-4h-0.1v3.4h-7L485.8,542.9L485.8,542.9z M499.4,578.2c4.7,0,6.1-5.2,6.1-9c0-3.7-1.3-8.8-6-8.8
			c-4.6,0-6.4,4.9-6.4,8.8C493,573.2,494.6,578.2,499.4,578.2z"/>
		<path fill="#004098" d="M519.8,557c2.8-1.3,6.5-2.1,9.6-2.1c8.4,0,11.9,3.5,11.9,11.6v3.6c0,2.8,0.1,4.9,0.1,6.9
			c0.1,2.1,0.2,4,0.3,6.2h-6.3c-0.3-1.4-0.3-3.3-0.3-4.1H535c-1.7,3.1-5.3,4.8-8.5,4.8c-4.9,0-9.7-3-9.7-8.2c0-4.1,2-6.5,4.7-7.9
			c2.7-1.3,6.3-1.6,9.3-1.6h4c0-4.5-2-6-6.2-6c-3.1,0-6.1,1.2-8.5,3L519.8,557z M528.3,578.5c2.2,0,3.9-1,5-2.5
			c1.2-1.6,1.5-3.5,1.5-5.7h-3.1c-3.2,0-8,0.5-8,4.8C523.7,577.5,525.7,578.5,528.3,578.5z"/>
		<path fill="#004098" d="M564.9,561.3c-2.2-0.8-3.8-1.2-6.4-1.2c-1.9,0-4.2,0.7-4.2,3.1c0,4.4,12.5,1.6,12.5,11.6
			c0,6.4-5.7,9-11.6,9c-2.7,0-5.5-0.5-8.2-1.2l0.4-5.9c2.3,1.1,4.6,1.8,7.1,1.8c1.8,0,4.7-0.7,4.7-3.4c0-5.4-12.5-1.7-12.5-11.7
			c0-6,5.2-8.6,10.8-8.6c3.4,0,5.6,0.5,7.8,1L564.9,561.3z"/>
		<path fill="#004098" d="M594.5,581.6c-2.6,1.4-5.6,2.2-9.5,2.2c-9.1,0-14.4-5.3-14.4-14.3c0-8,4.2-14.6,12.8-14.6
			c10.3,0,13.2,7,13.2,16.7h-19.1c0.3,4.5,3.4,7,7.9,7c3.5,0,6.5-1.3,9.2-2.8L594.5,581.6L594.5,581.6z M589.6,566.6
			c-0.2-3.5-1.8-6.5-5.8-6.5s-6.1,2.8-6.4,6.5H589.6z"/>
		<path fill="#004098" d="M645,582.6c-2.7,0.6-5.7,1.2-8.5,1.2c-12.1,0-20.6-6.1-20.6-18.7c0-12.8,7.8-20,20.6-20
			c2.5,0,5.7,0.5,8.5,1.6l-0.5,6.3c-2.8-1.6-5.4-2-8.1-2c-7.7,0-12.6,5.9-12.6,13.6c0,7.6,4.7,13.4,12.7,13.4c3,0,6.4-0.6,8.2-1.6
			L645,582.6z"/>
		<path fill="#004098" d="M672.1,581.6c-2.6,1.4-5.6,2.2-9.5,2.2c-9.1,0-14.4-5.3-14.4-14.3c0-8,4.2-14.6,12.8-14.6
			c10.3,0,13.2,7,13.2,16.7H655c0.3,4.5,3.4,7,7.9,7c3.5,0,6.5-1.3,9.2-2.8L672.1,581.6L672.1,581.6z M667.3,566.6
			c-0.2-3.5-1.8-6.5-5.8-6.5c-4,0-6.1,2.8-6.4,6.5H667.3z"/>
		<path fill="#004098" d="M679.8,555.5h6.8v3.8h0.1c2.2-3.2,5.3-4.4,9.1-4.4c6.6,0,9.4,4.6,9.4,10.8v17.4H698v-14.8
			c0-3.4-0.1-7.9-4.7-7.9c-5.2,0-6.3,5.6-6.3,9.2v13.5h-7.2L679.8,555.5L679.8,555.5z"/>
		<path fill="#004098" d="M715,560.8h-5.3v-5.3h5.3V550l7.2-2.3v7.8h6.4v5.3h-6.4v12.9c0,2.4,0.6,4.6,3.4,4.6c1.3,0,2.5-0.3,3.3-0.8
			l0.2,5.7c-1.5,0.4-3.2,0.6-5.3,0.6c-5.6,0-8.7-3.5-8.7-9L715,560.8L715,560.8z"/>
		<path fill="#004098" d="M755.7,581.6c-2.6,1.4-5.6,2.2-9.5,2.2c-9.1,0-14.4-5.3-14.4-14.3c0-8,4.2-14.6,12.8-14.6
			c10.3,0,13.2,7,13.2,16.7h-19.1c0.3,4.5,3.4,7,7.9,7c3.5,0,6.5-1.3,9.2-2.8L755.7,581.6L755.7,581.6z M750.8,566.6
			c-0.2-3.5-1.8-6.5-5.8-6.5c-4,0-6.1,2.8-6.4,6.5H750.8z"/>
		<path fill="#004098" d="M763.5,555.5h6.4v6.3h0.1c0.3-2.6,3.3-6.9,7.6-6.9c0.7,0,1.5,0,2.2,0.2v7.3c-0.6-0.4-1.9-0.6-3.2-0.6
			c-5.9,0-5.9,7.3-5.9,11.3v10.1h-7.2L763.5,555.5L763.5,555.5z"/>
		<path fill="#004098" d="M369,616.5h-5.3v-5.3h5.3v-3.9c0-5.5,3.1-9.4,8.8-9.4c1.8,0,3.9,0.3,5.3,0.6l-0.6,6c-0.6-0.4-1.6-1-3.1-1
			c-2.4,0-3.2,2.1-3.2,4.2v3.4h6.3v5.3h-6.3v22.4H369L369,616.5L369,616.5z"/>
		<path fill="#004098" d="M399.9,610.6c8.2,0,14.5,5.5,14.5,14.7c0,7.9-5.3,14.3-14.5,14.3c-9.1,0-14.4-6.3-14.4-14.3
			C385.5,616.2,391.8,610.6,399.9,610.6z M399.9,634c5.5,0,7-4.9,7-9.6c0-4.2-2.3-8.2-7-8.2c-4.7,0-6.9,4.1-6.9,8.2
			C393,629,394.5,634,399.9,634z"/>
		<path fill="#004098" d="M420.3,611.3h6.4v6.3h0.1c0.3-2.6,3.3-6.9,7.6-6.9c0.7,0,1.5,0,2.2,0.2v7.3c-0.6-0.4-1.9-0.6-3.2-0.6
			c-5.9,0-5.9,7.3-5.9,11.3v10.1h-7.2L420.3,611.3L420.3,611.3z"/>
		<path fill="#004098" d="M456.6,601.5h7.5V633h14.5v5.9h-22.1V601.5z"/>
		<path fill="#004098" d="M482.9,599.4h7.2v6.9h-7.2V599.4z M482.9,611.3h7.2v27.6h-7.2V611.3z"/>
		<path fill="#004098" d="M500.3,616.5H495v-5.3h5.3v-3.9c0-5.5,3.1-9.4,8.8-9.4c1.8,0,3.9,0.3,5.3,0.6l-0.6,6c-0.6-0.4-1.6-1-3.1-1
			c-2.4,0-3.2,2.1-3.2,4.2v3.4h6.3v5.3h-6.3v22.4h-7.2L500.3,616.5L500.3,616.5z"/>
		<path fill="#004098" d="M540.8,637.4c-2.6,1.4-5.6,2.2-9.5,2.2c-9.1,0-14.4-5.3-14.4-14.3c0-8,4.2-14.6,12.8-14.6
			c10.3,0,13.2,7,13.2,16.7h-19.1c0.3,4.5,3.4,7,7.9,7c3.5,0,6.5-1.3,9.2-2.8V637.4z M535.9,622.4c-0.2-3.5-1.8-6.5-5.8-6.5
			c-4,0-6.1,2.8-6.4,6.5H535.9z"/>
		<path fill="#004098" d="M584.2,608.3c-2.4-1-5-1.6-7.6-1.6c-2.6,0-5.9,1.1-5.9,5.2c0,6.5,16.4,3.8,16.4,16.3
			c0,8.2-6.5,11.3-14.1,11.3c-4.1,0-5.9-0.5-9.6-1.5l0.7-6.8c2.6,1.4,5.5,2.3,8.5,2.3c2.8,0,6.7-1.4,6.7-4.8
			c0-7.1-16.4-4.2-16.4-16.6c0-8.4,6.5-11.4,13.1-11.4c3.2,0,6.2,0.4,9,1.3L584.2,608.3z"/>
		<path fill="#004098" d="M611.2,617.2c-1.3-0.6-2.7-1-4.9-1c-4.5,0-7.3,3.5-7.3,8.8c0,5.1,2.4,9,7.5,9c2,0,4.3-0.8,5.5-1.3l0.3,6
			c-2.1,0.6-4.2,0.9-7.2,0.9c-9.1,0-13.6-6.2-13.6-14.6c0-8,4.7-14.3,13.4-14.3c2.9,0,5,0.3,7,0.9L611.2,617.2z"/>
		<path fill="#004098" d="M617.3,599.4h7.2v6.9h-7.2V599.4z M617.3,611.3h7.2v27.6h-7.2V611.3z"/>
		<path fill="#004098" d="M654.2,637.4c-2.6,1.4-5.6,2.2-9.5,2.2c-9.1,0-14.4-5.3-14.4-14.3c0-8,4.2-14.6,12.8-14.6
			c10.3,0,13.2,7,13.2,16.7h-19.1c0.3,4.5,3.4,7,7.9,7c3.5,0,6.5-1.3,9.2-2.8L654.2,637.4L654.2,637.4z M649.4,622.4
			c-0.2-3.5-1.8-6.5-5.8-6.5s-6.1,2.8-6.4,6.5H649.4z"/>
		<path fill="#004098" d="M661.9,611.3h6.8v3.8h0.1c2.3-3.2,5.3-4.4,9.1-4.4c6.5,0,9.4,4.6,9.4,10.8v17.4h-7.2v-14.8
			c0-3.4-0.1-7.9-4.7-7.9c-5.2,0-6.3,5.6-6.3,9.2v13.5h-7.2L661.9,611.3L661.9,611.3z"/>
		<path fill="#004098" d="M712.7,617.2c-1.3-0.6-2.7-1-4.9-1c-4.5,0-7.3,3.5-7.3,8.8c0,5.1,2.4,9,7.5,9c2,0,4.3-0.8,5.5-1.3l0.3,6
			c-2.1,0.6-4.2,0.9-7.2,0.9c-9.1,0-13.6-6.2-13.6-14.6c0-8,4.7-14.3,13.4-14.3c2.9,0,5,0.3,7,0.9L712.7,617.2z"/>
		<path fill="#004098" d="M740.7,637.4c-2.6,1.4-5.6,2.2-9.5,2.2c-9.1,0-14.4-5.3-14.4-14.3c0-8,4.2-14.6,12.8-14.6
			c10.3,0,13.2,7,13.2,16.7h-19.1c0.3,4.5,3.4,7,7.9,7c3.5,0,6.5-1.3,9.2-2.8L740.7,637.4L740.7,637.4z M735.9,622.4
			c-0.2-3.5-1.8-6.5-5.8-6.5c-4,0-6.1,2.8-6.4,6.5H735.9z"/>
	</g>
	<g>
		<g>
			<rect x="219.2" y="387.2" fill="#97BDC0" width="13.4" height="52.9"/>
			<rect x="251.6" y="399.8" fill="#97BDC0" width="10.7" height="52.9"/>
			<rect x="236.3" y="393.6" fill="#97BDC0" width="12.1" height="52.9"/>
			<rect x="200.6" y="381" fill="#97BDC0" width="14.3" height="52.9"/>
			<rect x="135.1" y="354.1" fill="#97BDC0" width="6.3" height="52.9"/>
			<rect x="264.8" y="406.1" fill="#97BDC0" width="9" height="52.9"/>
			<rect x="121.4" y="343" fill="#97BDC0" width="3.4" height="52.9"/>
			<rect x="105.2" y="322.1" fill="#97BDC0" width="1.9" height="52.9"/>
			<rect x="181.9" y="374.6" fill="#97BDC0" width="13.7" height="52.9"/>
			<rect x="149.5" y="361.7" fill="#97BDC0" width="9" height="52.9"/>
			<rect x="164.8" y="368.2" fill="#97BDC0" width="11.5" height="52.9"/>
			<rect x="284" y="418.8" fill="#97BDC0" width="4.6" height="52.9"/>
			<path fill="#97BDC0" d="M289.3,425.5c0,0,0,53.7,0,52.9c0-0.8,1.7,0,1.7,0v-52.9H289.3z"/>
			<rect x="275.7" y="412.4" fill="#97BDC0" width="7" height="52.9"/>
		</g>
		<g>
			<g>
				<g>
					<path fill="#97BDC0" d="M105.2,478.4c0,2.1,0.7,4.2,2,6.3c1.3,2.2,3.3,4.3,5.8,6.5c2.4,2.1,5.2,4.1,8.3,6
						c3.4,2.1,7.2,4.2,11.2,6.2c4.3,2.1,8.8,4.2,13.5,6.3c5.1,2.2,10.3,4.3,15.6,6.3c5.9,2.2,11.8,4.3,17.4,6.3
						c6.9,2.4,13.4,4.5,19,6.2c5.6,1.8,12.1,3.9,19,6.3c5.6,1.9,11.5,4,17.4,6.2c5.2,2,10.5,4.1,15.6,6.3c4.7,2,9.3,4.1,13.5,6.3
						c4.1,2,7.8,4.1,11.2,6.3c3.3,2,6.2,4.2,8.6,6.2c2.4,2.1,4.3,4.2,5.6,6.3c1.3,2.1,2,4.2,2,6.3v-52.9c0-2.1-0.7-4.2-2-6.2
						c-1.3-2.1-3.2-4.2-5.6-6.3c-2.4-2.1-5.3-4.2-8.6-6.3c-3.4-2.1-7.2-4.2-11.2-6.3c-4.3-2.1-8.8-4.2-13.5-6.2
						c-5.1-2.2-10.3-4.3-15.6-6.3c-5.9-2.2-11.8-4.3-17.4-6.2c-6.9-2.4-13.4-4.5-19-6.3c-5.6-1.8-12.1-3.9-19-6.3
						c-5.6-1.9-11.5-4-17.4-6.3c-5.2-2-10.5-4.1-15.6-6.2c-4.7-2-9.3-4.1-13.5-6.3c-4-2-7.8-4.1-11.2-6.3c-3.2-2-6-4-8.3-6
						c-2.5-2.1-4.5-4.3-5.8-6.5c-1.3-2.1-2-4.2-2-6.2V478.4z"/>
					<path fill="#004098" d="M291,578.5c0,2.1-0.7,4.2-2,6.2c-1.3,2.2-3.3,4.3-5.8,6.5c-2.3,2-5.2,4-8.3,6
						c-3.4,2.1-7.2,4.2-11.2,6.2c-4.3,2.1-8.8,4.2-13.5,6.3c-5.1,2.2-10.3,4.3-15.6,6.3c-5.9,2.2-11.8,4.3-17.4,6.2
						c-6.9,2.4-13.4,4.5-19,6.3c-5.6,1.8-12.1,3.9-19,6.3c-5.6,1.9-11.5,4-17.4,6.3c-5.2,2-10.5,4.1-15.6,6.2
						c-4.7,2-9.3,4.1-13.5,6.3c-4.1,2-7.8,4.1-11.2,6.3c-3.3,2.1-6.2,4.1-8.6,6.2c-2.4,2.1-4.3,4.2-5.6,6.3c-1.3,2.1-2,4.2-2,6.2
						v-52.9c0-2.1,0.7-4.2,2-6.3c1.3-2.1,3.2-4.2,5.6-6.2c2.4-2.1,5.3-4.2,8.6-6.3c3.4-2.1,7.2-4.2,11.2-6.2
						c4.3-2.1,8.8-4.2,13.5-6.3c5.1-2.2,10.3-4.3,15.6-6.3c5.9-2.2,11.8-4.3,17.4-6.3c6.9-2.4,13.4-4.5,19-6.2
						c5.6-1.8,12.1-3.9,19-6.3c5.6-1.9,11.5-4,17.4-6.3c5.2-2,10.5-4.1,15.6-6.2c4.7-2,9.3-4.1,13.5-6.3c4.1-2,7.8-4.1,11.2-6.3
						c3.2-2,6-4,8.3-6c2.5-2.1,4.5-4.3,5.8-6.5c1.3-2.1,2-4.2,2-6.3V578.5z"/>
				</g>
			</g>
			<g>
				<g>
					<g>
						<path fill="#004098" d="M291,478.4c0,2.1-0.7,4.2-2,6.3c-1.3,2.2-3.3,4.3-5.8,6.5c-2.3,2-5.2,4.1-8.3,6
							c-3.4,2.1-7.2,4.2-11.2,6.2c-4.3,2.1-8.8,4.2-13.5,6.3c-5.1,2.2-10.3,4.3-15.6,6.3c-5.9,2.2-11.8,4.3-17.4,6.3
							c-6.9,2.4-13.4,4.5-19,6.2c-5.6,1.8-12.1,3.9-19,6.3c-5.6,1.9-11.5,4-17.4,6.2c-5.2,2-10.5,4.1-15.6,6.3
							c-4.7,2-9.3,4.1-13.5,6.3c-4.1,2-7.8,4.1-11.2,6.3c-3.3,2-6.2,4.2-8.6,6.2c-2.4,2.1-4.3,4.2-5.6,6.3c-1.3,2.1-2,4.2-2,6.3
							v-52.9c0-2.1,0.7-4.2,2-6.2c1.3-2.1,3.2-4.2,5.6-6.3c2.4-2.1,5.3-4.2,8.6-6.3c3.4-2.1,7.2-4.2,11.2-6.3
							c4.3-2.1,8.8-4.2,13.5-6.3c5.1-2.2,10.3-4.3,15.6-6.3c5.9-2.2,11.8-4.3,17.4-6.2c6.9-2.4,13.4-4.5,19-6.3
							c5.6-1.8,12.1-3.9,19-6.3c5.6-1.9,11.5-4,17.4-6.3c5.2-2,10.5-4.1,15.6-6.2c4.7-2,9.3-4.1,13.5-6.3c4.1-2,7.8-4.1,11.2-6.3
							c3.2-2,6-4,8.3-6c2.5-2.1,4.5-4.3,5.8-6.5c1.3-2.1,2-4.2,2-6.2V478.4z"/>
					</g>
				</g>
			</g>
			<g>
				<rect x="163.5" y="387.2" fill="#004098" width="13.4" height="52.9"/>
				<rect x="133.8" y="399.8" fill="#004098" width="10.7" height="52.9"/>
				<rect x="147.6" y="393.6" fill="#004098" width="12.1" height="52.9"/>
				<rect x="181.3" y="381" fill="#004098" width="14.3" height="52.9"/>
				<rect x="254.8" y="354.1" fill="#004098" width="6.3" height="52.9"/>
				<rect x="122.3" y="406.1" fill="#004098" width="9" height="52.9"/>
				<rect x="271.4" y="343" fill="#004098" width="3.4" height="52.9"/>
				<rect x="289.1" y="322.1" fill="#004098" width="1.9" height="52.9"/>
				<rect x="200.6" y="374.6" fill="#004098" width="13.7" height="52.9"/>
				<rect x="237.6" y="361.7" fill="#004098" width="9" height="52.9"/>
				<rect x="219.9" y="368.2" fill="#004098" width="11.5" height="52.9"/>
				<rect x="107.5" y="418.8" fill="#004098" width="4.6" height="52.9"/>
				<path fill="#004098" d="M106.9,425.5c0,0,0,53.7,0,52.9c0-0.8-1.7,0-1.7,0v-52.9H106.9z"/>
				<rect x="113.4" y="412.4" fill="#004098" width="7" height="52.9"/>
			</g>
		</g>
	</g>
</g>
</svg>
