<?xml version="1.0" encoding="utf-8"?>
<!-- Generator: Adobe Illustrator 17.1.0, SVG Export Plug-In . SVG Version: 6.00 Build 0)  -->
<!DOCTYPE svg PUBLIC "-//W3C//DTD SVG 1.1//EN" "http://www.w3.org/Graphics/SVG/1.1/DTD/svg11.dtd">
<svg version="1.1" id="候補_xFF11_採用_Myriad_pro"
	 xmlns="http://www.w3.org/2000/svg" xmlns:xlink="http://www.w3.org/1999/xlink" x="0px" y="0px" viewBox="0 0 166 26.1"
	 enable-background="new 0 0 166 26.1" xml:space="preserve">
<g>
	<path fill="#00469C" d="M11.8,0.9l11.1,23.7h-2.6l-3.7-7.8H6.3l-3.7,7.8H0L11.2,0.9H11.8z M11.5,6l-4.1,8.6h8.1L11.5,6z"/>
	<path fill="#00469C" d="M37.6,0.8c3.4,0,6.3,1.1,8.7,3.4c2.3,2.3,3.5,5.1,3.5,8.5c0,3.3-1.2,6.2-3.5,8.5c-2.3,2.3-5.1,3.5-8.5,3.5
		c-3.4,0-6.2-1.2-8.5-3.5s-3.5-5.1-3.5-8.4c0-2.2,0.5-4.2,1.6-6.1c1.1-1.9,2.5-3.3,4.3-4.4C33.5,1.3,35.4,0.8,37.6,0.8z M37.7,3
		c-1.7,0-3.3,0.4-4.8,1.3c-1.5,0.9-2.7,2.1-3.5,3.5c-0.8,1.5-1.3,3.1-1.3,5c0,2.7,0.9,5,2.8,6.9c1.9,1.9,4.1,2.8,6.8,2.8
		c1.8,0,3.4-0.4,4.9-1.3c1.5-0.9,2.7-2,3.5-3.5c0.8-1.5,1.3-3.1,1.3-5c0-1.8-0.4-3.4-1.3-4.9s-2-2.6-3.6-3.5C41,3.5,39.4,3,37.7,3z"
		/>
	<path fill="#00469C" d="M54.2,0.9h14.6v2.3H56.5v7.4h12.1V13H56.5v9.3h12.1v2.3H54.2V0.9z"/>
</g>
<g>
	<path fill="#488EC4" d="M78.9,8.1L78,10.9h-1.2l3-8.8h1.4l3,8.8h-1.2L82,8.1H78.9z M81.7,7.2l-0.9-2.5c-0.2-0.6-0.3-1.1-0.5-1.6h0
		c-0.1,0.5-0.3,1.1-0.4,1.6l-0.9,2.5H81.7z"/>
	<path fill="#488EC4" d="M85.3,1.7h1.1v9.2h-1.1V1.7z"/>
	<path fill="#488EC4" d="M88.4,1.7h1.1v9.2h-1.1V1.7z"/>
	<path fill="#488EC4" d="M101.7,6.4c0,3-1.8,4.6-4.1,4.6c-2.3,0-3.9-1.8-3.9-4.4c0-2.8,1.7-4.6,4.1-4.6C100.2,2,101.7,3.8,101.7,6.4
		z M94.9,6.6c0,1.9,1,3.5,2.8,3.5c1.8,0,2.8-1.7,2.8-3.6c0-1.7-0.9-3.6-2.8-3.6C95.9,2.9,94.9,4.6,94.9,6.6z"/>
	<path fill="#488EC4" d="M103.5,10.9V5.5h-0.9V4.6h0.9V4.3c0-0.9,0.2-1.7,0.7-2.2c0.4-0.4,1-0.6,1.5-0.6c0.4,0,0.8,0.1,1,0.2
		l-0.2,0.9c-0.2-0.1-0.4-0.1-0.7-0.1c-1,0-1.2,0.9-1.2,1.8v0.3h1.5v0.9h-1.5v5.4H103.5z"/>
	<path fill="#488EC4" d="M82.8,16.6c0,0.5-0.1,1-0.1,1.7V22c0,1.4-0.3,2.3-0.9,2.9c-0.6,0.6-1.5,0.8-2.3,0.8c-0.8,0-1.6-0.2-2.1-0.5
		l0.3-0.9c0.4,0.3,1.1,0.5,1.8,0.5c1.2,0,2-0.6,2-2.2v-0.7h0c-0.4,0.6-1,1.1-2,1.1c-1.6,0-2.7-1.3-2.7-3.1c0-2.1,1.4-3.3,2.8-3.3
		c1.1,0,1.7,0.6,2,1.1h0l0.1-0.9H82.8z M81.6,19.1c0-0.2,0-0.4-0.1-0.5c-0.2-0.7-0.8-1.2-1.6-1.2c-1.1,0-1.9,0.9-1.9,2.4
		c0,1.2,0.6,2.3,1.9,2.3c0.7,0,1.3-0.4,1.6-1.2c0.1-0.2,0.1-0.4,0.1-0.6V19.1z"/>
	<path fill="#488EC4" d="M85.3,19.9c0,1.5,1,2.2,2.2,2.2c0.8,0,1.3-0.1,1.7-0.3l0.2,0.8C89,22.8,88.3,23,87.3,23
		c-1.9,0-3.1-1.3-3.1-3.2c0-1.9,1.1-3.4,3-3.4c2.1,0,2.6,1.8,2.6,3c0,0.2,0,0.4,0,0.5H85.3z M88.7,19.1c0-0.7-0.3-1.9-1.6-1.9
		c-1.2,0-1.7,1.1-1.8,1.9H88.7z"/>
	<path fill="#488EC4" d="M91.2,18.3c0-0.6,0-1.2-0.1-1.7h1l0.1,1h0c0.3-0.6,1-1.2,2.1-1.2c0.9,0,2.2,0.5,2.2,2.7v3.8h-1.1v-3.6
		c0-1-0.4-1.9-1.5-1.9c-0.8,0-1.3,0.5-1.5,1.2c-0.1,0.1-0.1,0.3-0.1,0.5v3.8h-1.1V18.3z"/>
	<path fill="#488EC4" d="M99,19.9c0,1.5,1,2.2,2.2,2.2c0.8,0,1.3-0.1,1.7-0.3l0.2,0.8c-0.4,0.2-1.1,0.4-2.1,0.4
		c-1.9,0-3.1-1.3-3.1-3.2c0-1.9,1.1-3.4,3-3.4c2.1,0,2.6,1.8,2.6,3c0,0.2,0,0.4,0,0.5H99z M102.4,19.1c0-0.7-0.3-1.9-1.6-1.9
		c-1.2,0-1.7,1.1-1.8,1.9H102.4z"/>
	<path fill="#488EC4" d="M112.2,18.8h-3.4v3.2h3.8v0.9h-4.9v-8.8h4.7v0.9h-3.6v2.8h3.4V18.8z"/>
	<path fill="#488EC4" d="M114.6,16.6l0.9,1.4c0.2,0.4,0.4,0.7,0.6,1h0c0.2-0.4,0.4-0.7,0.6-1l0.9-1.3h1.2l-2.1,3l2.2,3.2h-1.3
		l-0.9-1.4c-0.2-0.4-0.5-0.7-0.7-1.1h0c-0.2,0.4-0.4,0.7-0.7,1.1l-0.9,1.4h-1.3l2.2-3.2l-2.1-3.1H114.6z"/>
	<path fill="#488EC4" d="M120.1,18.6c0-0.8,0-1.5-0.1-2.1h1l0.1,1.1h0c0.5-0.8,1.2-1.2,2.2-1.2c1.5,0,2.7,1.3,2.7,3.2
		c0,2.3-1.4,3.4-2.9,3.4c-0.8,0-1.6-0.4-1.9-1h0v3.4h-1.1V18.6z M121.2,20.3c0,0.2,0,0.3,0.1,0.5c0.2,0.8,0.9,1.3,1.7,1.3
		c1.2,0,1.9-1,1.9-2.4c0-1.3-0.7-2.3-1.9-2.3c-0.8,0-1.5,0.6-1.7,1.4c0,0.1-0.1,0.3-0.1,0.5V20.3z"/>
	<path fill="#488EC4" d="M127.5,18.6c0-0.7,0-1.4-0.1-2h1l0,1.2h0.1c0.3-0.8,1-1.4,1.7-1.4c0.1,0,0.2,0,0.3,0v1.1
		c-0.1,0-0.2,0-0.4,0c-0.8,0-1.4,0.6-1.5,1.5c0,0.2-0.1,0.3-0.1,0.5v3.4h-1.1V18.6z"/>
	<path fill="#488EC4" d="M132.2,19.9c0,1.5,1,2.2,2.2,2.2c0.8,0,1.3-0.1,1.7-0.3l0.2,0.8c-0.4,0.2-1.1,0.4-2.1,0.4
		c-1.9,0-3.1-1.3-3.1-3.2c0-1.9,1.1-3.4,3-3.4c2.1,0,2.6,1.8,2.6,3c0,0.2,0,0.4,0,0.5H132.2z M135.6,19.1c0-0.7-0.3-1.9-1.6-1.9
		c-1.2,0-1.7,1.1-1.8,1.9H135.6z"/>
	<path fill="#488EC4" d="M138,21.7c0.3,0.2,0.9,0.5,1.5,0.5c0.8,0,1.2-0.4,1.2-0.9c0-0.5-0.3-0.8-1.2-1.2c-1.1-0.4-1.7-1-1.7-1.8
		c0-1,0.8-1.8,2.2-1.8c0.6,0,1.2,0.2,1.5,0.4l-0.3,0.8c-0.2-0.2-0.7-0.4-1.3-0.4c-0.7,0-1.1,0.4-1.1,0.9c0,0.5,0.4,0.8,1.2,1.1
		c1.1,0.4,1.7,1,1.7,1.9c0,1.1-0.9,1.9-2.4,1.9c-0.7,0-1.3-0.2-1.8-0.4L138,21.7z"/>
	<path fill="#488EC4" d="M143.1,21.7c0.3,0.2,0.9,0.5,1.5,0.5c0.8,0,1.2-0.4,1.2-0.9c0-0.5-0.3-0.8-1.2-1.2c-1.1-0.4-1.7-1-1.7-1.8
		c0-1,0.8-1.8,2.2-1.8c0.6,0,1.2,0.2,1.5,0.4l-0.3,0.8c-0.2-0.2-0.7-0.4-1.3-0.4c-0.7,0-1.1,0.4-1.1,0.9c0,0.5,0.4,0.8,1.2,1.1
		c1.1,0.4,1.7,1,1.7,1.9c0,1.1-0.9,1.9-2.4,1.9c-0.7,0-1.3-0.2-1.8-0.4L143.1,21.7z"/>
	<path fill="#488EC4" d="M149.7,14.8c0,0.4-0.3,0.7-0.7,0.7c-0.4,0-0.7-0.3-0.7-0.7c0-0.4,0.3-0.7,0.7-0.7
		C149.4,14.1,149.7,14.4,149.7,14.8z M148.4,22.9v-6.3h1.1v6.3H148.4z"/>
	<path fill="#488EC4" d="M157.1,19.7c0,2.3-1.6,3.3-3.1,3.3c-1.7,0-3-1.2-3-3.2c0-2.1,1.4-3.3,3.1-3.3
		C155.9,16.4,157.1,17.8,157.1,19.7z M152.2,19.7c0,1.4,0.8,2.4,1.9,2.4c1.1,0,1.9-1,1.9-2.4c0-1.1-0.5-2.4-1.9-2.4
		C152.7,17.3,152.2,18.6,152.2,19.7z"/>
	<path fill="#488EC4" d="M158.6,18.3c0-0.6,0-1.2-0.1-1.7h1l0.1,1h0c0.3-0.6,1-1.2,2.1-1.2c0.9,0,2.2,0.5,2.2,2.7v3.8h-1.1v-3.6
		c0-1-0.4-1.9-1.5-1.9c-0.8,0-1.3,0.5-1.5,1.2c-0.1,0.1-0.1,0.3-0.1,0.5v3.8h-1.1V18.3z"/>
</g>
</svg>
