<?xml version="1.0" encoding="utf-8"?>
<!-- Generator: Adobe Illustrator 17.1.0, SVG Export Plug-In . SVG Version: 6.00 Build 0)  -->
<!DOCTYPE svg PUBLIC "-//W3C//DTD SVG 1.1//EN" "http://www.w3.org/Graphics/SVG/1.1/DTD/svg11.dtd">
<svg version="1.1" id="レイヤー_2" xmlns="http://www.w3.org/2000/svg" xmlns:xlink="http://www.w3.org/1999/xlink" x="0px"
	 y="0px" viewBox="0 0 500 400" enable-background="new 0 0 500 400" xml:space="preserve">
<g>
	<path fill="#D9A89A" d="M304.8,225.4c9.8,17.5,4.9,23.1,2.1,41.3c-1.4,12.6,2.1,25.9-2.1,37.8c-4.9,17.5-10.5,25.9-4.2,44.1
		c4.2,12.6,18.2,21,32.2,17.5c-0.7-4.2-2.1-8.4-4.9-11.9c0.7,4.9,5.6,9.8,10.5,12.6c2.1-8.4-6.3-15.4-7.7-23.1c-1.4-7,2.1-14,2.8-21
		c1.4-18.2,10.5-30.8,14.7-48.3c4.9-16.1,10.5-30.1,16.8-45.5c6.3-15.4,8.4-31.5-5.6-43.4c-29.4-24.5-58.8,9.8-56.7,39.2"/>
</g>
<g>
	<g>
		<g>
			<path fill="#EDDCD2" d="M418.2,55.3c-0.7-14.7,37.1-41.3,50.4-44.1c11.2-2.1,11.2,0.7,9.8,10.5c-2.1,9.1-3.5,16.1-3.5,25.9
				c0,15.4-3.5,33.6-11.9,46.2c-17.5,25.2-38.5-10.5-42.7-27.3c-1.4-4.2-2.8-8.4-2.1-13.3"/>
		</g>
		<g>
			<path fill="#F2B598" d="M478.4,21.7c0.7-5.1,1.1-8.3-0.4-9.9c-6.2,0.1-13.3,4.5-18,8.2c-6.2,4.7-13.2,8.9-18.9,14.4
				c-7.2,7.2-13.7,13.2-12.7,24.6c0.7,8.2,13.7,6,8.5,16.2c-2.1,4-5.8,8.6-6.4,13.2c3.1,4.5,6.6,8.5,10.4,11.1
				c4.2,0.8,8.9,0.6,12.7,0.6c1.5,0,2.8-0.1,4-0.3c1.8-1.4,3.7-3.3,5.4-5.9c8.4-12.6,11.9-30.8,11.9-46.2
				C474.9,37.8,476.3,30.8,478.4,21.7z"/>
		</g>
	</g>
	<g>
		<path fill="#F29782" d="M438.1,95.4c6-0.7,6-4.7,7.4-9c1.7-5.4,6.4-9.7,6.4-15.4c0-5-2.3-9-2-14.7c0.7-6,9.7-25.5,5-30.2
			c-0.6-0.5-1.2-0.8-2-0.9c-4.1,2.9-8.1,5.8-11.7,9.2c-7.2,7.2-13.7,13.2-12.7,24.6c0.7,8.2,13.7,6,8.5,16.2
			c-2.1,4-5.8,8.6-6.4,13.2c0,0,0,0,0,0c0.7,1.1,1.5,2.1,2.3,3.2c0,0,0,0.1,0.1,0.1c0.4,0.5,0.8,1,1.2,1.5c0,0,0.1,0.1,0.1,0.1
			c0.4,0.5,0.8,0.9,1.2,1.4c0,0,0,0,0,0c0.3,0.3,0.5,0.5,0.8,0.8C436.8,95.5,437.4,95.5,438.1,95.4z"/>
	</g>
</g>
<g>
	<path fill="#EAD4C7" d="M338.4,55.3l1.4,1.4c-35.7,0-68.6-11.9-104.3-15.4c-15.4-1.4-34.3-2.8-49.7-0.7c-9.8,1.4-19.6,6.3-28.7,9.8
		c-11.2,4.2-27.3,7-37.8,13.3c-33.6,21.7-66.5,65.8-61.6,108.5c0.3,2.5,0.8,4.9,1.5,7.2c-0.1,1.7-0.1,3.2-0.1,4.7
		c0.7,16.1,7.7,32.9,6.3,48.3C64,248.5,52.1,259,53.5,277.2c1.4,18.9-0.7,28-9.1,46.2c-2.8,5.6-9.1,16.8-7,23.8
		c1.6,5.4,4.3,6,6.8,4.4c-1.5,12.2,7.7,21.4,15,10.5c1.2,12.6,8.4,5.1,12.5-4.4c3.5-6.3,7-13.3,8.4-21c2.1-8.4,1.4-18.2,4.2-26.6
		c3.5-9.8,11.2-16.8,14-26.6c2.8-9.1,2.8-18.2,4.9-26.6c2.8-11.2,8.4-16.1,16.1-23.8c5.9-5.9,9.5-11.2,12.1-16.5
		c4.2,0.6,8.1,1.2,11.7,1.8c14.7,2.1,28.7,2.8,43.4,2.8c16.1,0,30.8-7,46.2-4.9c12.6,1.4,22.4,9.8,34.3,13.3
		c9.1,2.8,18.9,3.5,28.7,2.1c7.7-0.7,13.3-4.2,21-5.6c9.8-2.8,20.3-0.7,30.1-1.4c32.9-2.8,41.3-56,41.3-82.6
		C388.1,109.9,383.9,52.5,338.4,55.3z"/>
</g>
<g>
	<path fill="#D2A28E" d="M192.1,219.8c-2.8,7.7-11.9,8.4-18.2,12.6c-6.3,4.2-11.2,9.1-16.8,14c-9.8,9.8-25.2,20.3-27.3,34.3
		c-2.1,13.3,2.8,26.6,5.6,39.2c1.4,6.3,1.4,12.6,3.5,18.9c2.1,7,7.7,12.6,9.8,18.9c-16.1,9.1-31.5-2.1-30.1-19.6
		c1.4,6.3-2.8,10.5-6.3,4.2c-11.2,5.6-14-39.2-16.1-47.6c-3.5-15.4-12.6-32.2-1.4-47.6c5.6-7.7,11.9-11.9,16.1-21.7
		c3.5-7.7,4.2-16.1,8.4-23.1c9.1-15.4,28.7-18.9,44.8-16.1C182.3,189.7,193.5,203,192.1,219.8"/>
</g>
<g>
	<g>
		<path fill="#A17E64" d="M298.7,342.8c5.3,19.2,20.1,25.9,34.1,22.4c-0.3-1.6-0.6-3.2-1.1-4.7c1.9,2.1,4.4,4.1,6.9,5.5
			c1.8-7.3-4.5-14-7.1-20.6c0,0,0,0,0,0c0,6-0.8,12.8-24.5,2.5"/>
	</g>
</g>
<g>
	<path fill="#CB7D66" d="M332.9,326.4c-3.2,1.2-5.1,1.3-7.6,3.8c-3.2-4.5-9.7-4.5-14.9-2.6l-2.6,0.6c-9.7,12.9,0.6,29.8,15.5,27.2
		c7.6-1.6,7.9-2.8,8.2-8.8c-0.4-1-0.7-1.9-0.8-2.9C329.5,338,331.7,332.2,332.9,326.4z"/>
</g>
<g>
	<path fill="#EFDFD2" d="M335,97.9c-2.6-11.6-7.8-23.3-12.9-33.7l-2.6-1.3c-36.2-2.6-85.4,14.2-95.8,53.1
		c-7.8,27.2-2.6,59.5,1.3,86.7c1.7,14.6,10.3,28.4,21.7,36.5c1.5,4.7,2.8,9.6,4.2,14.9c5.6,17.5,9.8,31.5,11.9,50.4
		c1.4,13.3,2.1,26.6,2.8,40.6c0,4.9-1.4,15.4,2.8,18.9c7.7,6.3,9.1-5.6,8.4-11.2c5.6,4.9,5.6,17.5,11.9,21c5,2.8,17.7,2,18.2-2.7
		c4.7,7.7,6.5-2,3.5-10.6c-2.8-8.4-4.9-17.5-7-25.9c-4.9-17.5-7-30.8-2.1-48.3c4.9-18.9-7.7-28-5.6-46.9c0.2-2.8,0.5-5.8,0.7-9
		c2.6-5,5-11,8.9-14.8c10.4-12.9,16.8-12.9,23.3-34.9C335,156.1,338.9,123.7,335,97.9z"/>
</g>
<g>
	<path fill="#E1B5AA" d="M174,202.3l13.3-1.8c-16-25.5-34.9-53.6-39.4-84.2c-0.6-5.7,1.3-26.2-7-24.2c-9.6,2.6-10.2,40.2-10.8,47.2
		c-0.6,11.5,3.2,31.3-1.3,42.1c-3.2,8.3-12.8,15.3-16.6,23.6c-7,12.8-7,26.2-16,36.4c-7.7,8.9-14.7,17.9-19.8,28.7
		c-5.1,9.6-11.5,30.6,1.9,37.6c1.9,1,3.8,1.4,5.6,1.3c3.8-8.6,10.5-15.2,13-24.2c2.8-9.1,2.8-18.2,4.9-26.6
		c2.8-11.2,8.4-16.1,16.1-23.8c5.9-5.9,9.5-11.2,12.1-16.5c4.2,0.6,8.1,1.2,11.7,1.8c0.1,0,18.4,1,18.4,1c1.1-1.7,3.9-7,5-8.7
		C171,203.7,171,203.7,174,202.3z"/>
</g>
<g>
	<path fill="#C48367" d="M379.9,154c-2,3.8-3.1,8.2-3.1,12.6c0.3,5.8,2.4,5.5,6.8,8.2c7.8,4.8,14.3,6.1,23.5,6.8
		c8.9,0.3,17.4-9.2,8.9-15.3c-5.5-3.8-11.9-5.5-18.4-7.5c-4.1-1.4-9.9-6.1-14.3-6.1c-1.4,0-1.7,0-3.1,1"/>
</g>
<g>
	<path fill="#E9D2C4" d="M337,70.7c-15.4,33.6-40.6,65.1-33.6,105c5.6,32.9,52.5,48.3,79.8,35c30.8-14.7,24.5-67.9,17.5-93.8
		c-7-25.2-35-72.1-65.1-46.2"/>
</g>
<g>
	<path fill="#E9BCA7" d="M391.5,168c-8.5-4.4-21.5-13.3-20.1-24.2c1-8.9,7.5-20.5,13-27.3c5.5-6.5,11.9-6.1,19.8-4.8
		c9.5,1.4,15.3,0,18.8,10.6c1.4,4.1,1.4,7.2,4.1,10.6c2.7,3.4,6.1,5.8,7.5,10.2c2.4,7.8,0.3,16.4-6.1,21.5
		c-8.9,6.8-27.3,6.1-37.9,3.1"/>
</g>
<g>
	<path fill="#EDDCD2" d="M350.3,44.8c31.5,0,82.6,0,90.3,39.2c1.4,7.7-2.1,14-3.5,21.7c-1.4,9.1,2.1,12.6,4.2,20.3
		c4.2,14-1.4,35-9.1,46.9c-10.5,16.8-37.1,30.8-56,28c-18.2-2.8-44.1-20.3-46.2-37.8c-2.8-20.3-2.1-36.4,3.5-56
		c0.7-2.1-9.6,6.6-11,4.5c-2.1-4.9-0.2-15.9-3.7-18.7c-6.3-6.3,2.1-10.3,4.9-20.1c3.5-7.7,14-28,23.1-27.3"/>
</g>
<g>
	<path fill="#DEAB90" d="M376.6,161.3c-2.7,0-2.5,3.1-2.1,5c0.6,3.1,3.1,4.4,5.4,6.5c4,3.3,8.8,6.3,13.4,8.4
		c4.2,1.9,10.1,1.3,14.7,2.1c2.5,0.4,5.7,0,8-1.3c2.3-1.3,6.3-6.5,4.4-9.4c-1.5-2.1-6.5-1-8.8-1.1c-2.5-0.4-5.2-1-7.7-1.1
		c-4.6-0.4-8.4-2.3-12.6-2.7c-6.1-0.4-8.1-2.4-14.7-5.9"/>
</g>
<g>
	<path fill="#EBBCA8" d="M380.7,120.7c1.5-4.4-9.6-7-6.3-12.9c3.3-5.2,9.6,0.4,12.5,2.2c4.4,3.3,5.5,3.3,11.4,1.8
		c5.5-1.5,7.7-1.1,13.3-0.7c2.2,0.4,2.9,1.5,5.2,0.4c2.6-1.5,1.8-4.4,4.1-5.5c5.9-4.1,5.9,4.1,5.2,8.1c-1.5,7.7-1.8,6.3,3.7,12.2
		c3.7,3.7,7.7,9.2,8.8,14c4.1,13.6-5.5,23.2-16.2,30.2c-10.3,6.6-18.8,3-29.5-0.7c-8.1-3-22.9-8.8-26.9-17.3
		c-6.6-12.2,8.5-21,14-29.9c0.7-0.7,1.1-1.5,1.5-2.2"/>
</g>
<g>
	<path fill="#ED9E99" d="M390.4,165.3c-6.5-1-5.1-9.5-4.4-14.3c1-5.5,4.1-7.5,6.8-11.9c2-4.4,2.4-10.2,8.2-12.3
		c2.7-0.7,3.4,0.3,6.1,0.3c1.4,0,6.1-1.7,7.5-1.4c3.1,1,6.1,9.2,8.9,11.9c3.8,3.8,7.2,7.5,8.9,12.6c3.8,9.9-2,17.1-11.9,18.4
		c-10.9,1-20.5-0.7-30.4-4.4"/>
</g>
<g>
	<path fill="#E3807B" d="M411.7,176.4c-11.9,0-19.2,1.8-22.4-11.9c-3.8-16.2,10.5-25,25.2-25.9c32.5-2.1,27.9,44.8-4.2,37.8"/>
</g>
<g>
	<path fill="#B94140" d="M421.7,160c-2.4-5.8,10.8-5.6,8,1.1c-1.7,4.1-8.3,2-8.3-2.3"/>
</g>
<g>
	<path fill="#B94140" d="M403.4,152.1c2.6-0.8,4.3,3,3,5.9c-1.1,2.1-4.5,2.4-6.5,2.1c-1.9-0.3-5.2-2.4-3.5-5.9
		c1.1-2.1,4.7-1.3,6.5-2.1"/>
</g>
<g>
	<path fill="#9B2E31" d="M404.3,152.9c-3.7-1.1-7.4,7-2,7.1C406.3,160.1,408.7,152.7,404.3,152.9"/>
</g>
<g>
	<path fill="#9B2E31" d="M421.7,160c-1.1-1.3,2.9-6.5,3.9-3.1c0.6,2.1-3.1,5.5-4,2.8"/>
</g>
<g>
	<path fill="#D58F85" d="M216.7,217.2c-15.8,1.9-29.8-24.5-41.9-33.9c-9-7.5-16.9-20.1-25.8-13.7c-14.9,10.7-13,38.8-19,47.9
		c12.8,2.8,29.8,4.2,44.1,5.1C187.6,223.6,204.3,222.8,216.7,217.2"/>
</g>
<g>
	<path fill="#EA8E81" d="M415.2,149.1c-2.4-2.6-11.6-2.8-8.3-6.9c2.6-3.3,12-2.2,15.6-0.8c3,1,9.5,5.3,3.2,5.9
		c-1.4,0.2-2.8-0.6-4.3-0.4c-2,0.4-3.7,1.8-5.7,2.2"/>
</g>
<g>
	<path fill="#EA8E81" d="M389.4,165.6c-1.6-2.8-1-10,2-12c5.1-3.3-0.4,9.1,1,11.6c2.4,5.1,13.2,0.4,13.2,7.5c0,6.3-9.8,2.4-12.2,0
		c-2-2.2-4.1-4.7-4.5-7.7"/>
</g>
<g>
	<path fill="#EA8E81" d="M422.3,176.7c-4.9-0.6-4.3-6.3-0.2-7.9c2.6-1,3.2,0.2,5.5-2.2c1-1.2,2.8-5.3,4.3-5.5
		c3.7-0.4,2.2,5.9,1.2,7.7c-2.6,4.1-6.3,5.1-10.4,6.9"/>
</g>
<g>
	<path fill="#D0856E" d="M138.9,337.6c-2.1-6.3-2.1-12.6-3.5-18.9c-1.5-6.7-3.5-13.5-4.8-20.5c-0.1-0.3-0.3-0.7-0.4-1
		c-2.7-7.8-7.3-14.2-14-12.3c-8,2.6-14.7,14.9-16,22c-1.3,5.8,0,14.9,2.7,20.1c3.3,7.8,9.4,7.1,13.4,12.3c1,1.2,1.2,2.8,1.3,4.3
		c0.5-0.5,0.9-1.2,1.2-2.2c0.3,3.3,1.2,6.2,2.6,8.8c2.1,1.8,1.4-1,5.6-2.5c4-1.3,9.4-10.6,12.7-2.6h1.3c0-1,0-1.9,0-2.8
		C140,340.7,139.4,339.2,138.9,337.6z"/>
</g>
<g>
	<path fill="#E9BEB5" d="M377.1,105.2c-3.4-4.1-2-8.9-6.1-13c-3.4-3.1-6.1-4.4-10.9-4.8c-9.2-1-11.3,8.9-13.6,16.7
		c-1.4,5.1-6.1,19.4,2,21.5c10.2,2.4,15.7-17.1,22.2-19.4c1.4-0.7,3.4-0.7,4.4-0.7"/>
</g>
<g>
	<path fill="#E9BEB5" d="M426.2,110.4c0-4.1,0.7-26.6,10.2-20.1c6.1,4.1-2.7,18.1-1.7,22.2c5.1-2,9.5,10.9,4.8,12.6
		c-4.4,1.4-11.6-10.9-13.3-14.3"/>
</g>
<g>
	<g>
		
			<radialGradient id="SVGID_1_" cx="471.8901" cy="108.9881" r="5.2627" gradientTransform="matrix(1.0924 0 0 1 -83.4983 0)" gradientUnits="userSpaceOnUse">
			<stop  offset="0" style="stop-color:#000000"/>
			<stop  offset="0.1287" style="stop-color:#150C04"/>
			<stop  offset="0.3696" style="stop-color:#351F0B"/>
			<stop  offset="0.6009" style="stop-color:#4D2D0F"/>
			<stop  offset="0.8163" style="stop-color:#5B3512"/>
			<stop  offset="1" style="stop-color:#603813"/>
		</radialGradient>
		<path fill="url(#SVGID_1_)" d="M428.4,111.3c1-1.9,1.3-4.2,1.7-6.2c0.1-0.7,0.2-2.4,1.2-2.5c1-0.1,1.8,1.1,2.3,1.7
			c2.6,2.8,3.5,6.4,1.3,9.7c-0.3,0.4-0.7,1.1-1.1,1.3c-0.8,0.4-1.3-0.3-1.8-0.8c-1.4-1.3-2.3-2.5-4.1-3.4"/>
	</g>
	<g>
		<path fill="#8E7070" d="M431.1,105.6c-1.6-0.1-1-1.8,0.5-1.5c1.4,0.3,1.2,1.6-0.3,1.4"/>
	</g>
</g>
<g>
	<path fill="#E8CCC0" d="M341.8,99.9c-4.2-12.7-14.1,6.6-16,8c-2.3-10.8-9.4-7-11.7,0.9c-1.9,6.6-1.9,13.6-3.3,20.2
		c-2.3,15.5-3.8,29.6,0,45c-0.5-20.6,6.1-49.3,18.8-65.7c0.5,12.2-17.8,62.9,3.8,64.7c-5.2-11.7-4.7-27.7-2.3-40.4
		C332.9,123.4,344.2,107.4,341.8,99.9"/>
</g>
<g>
	<path fill="#D69C7F" d="M303.7,336c-0.8-3-1.6-5.7-2.2-8.5c-1-0.5-2.6-0.9-4.1-0.6c-5.2,0.6-7.1,7.8-12.9,8.4
		c-5.8,0.6-17.2-0.7-19.8-5.8c0.2,1.5,0.3,3.5,0.3,5.8c0.2,3.1,0.3,6.3,0.5,9.4c0.8,7,3.3,13.1,11.2,11.3c0.1,0.2,0.1,0.3,0.2,0.5
		c0-0.9-0.1-1.7-0.2-2.4c2.3,2,3.6,5.3,4.9,8.7c3.5,1.7,6.6-3.1,10.6-3.5c4.5-0.6,8.4,1.9,11.6,1.9c4.7,0.6,5.6,5.2,6.6-0.2
		C307.9,353,305.7,344.1,303.7,336z"/>
</g>
<g>
	<path fill="#D69C7F" d="M74.2,315.6c-3.3-1.5-14.1,0.7-18.3,1.5c-6.2,1.4-8.2,1.6-10.2,3.4c-0.4,1-0.9,1.9-1.3,3
		c-1.9,3.8-5.4,10.1-6.8,16c2.9,5.5,11.7,9.3,21.7,12c7.7,2.2,13.2,1,16.8-2.3c1.8-3.9,3.2-8,4-12.4c0.7-2.9,1.1-6,1.4-9.2
		C80.9,322.5,78.7,317.9,74.2,315.6z"/>
</g>
<g>
	<g>
		<g>
			<path fill="#B47E64" d="M265.6,344.4c0,5-1.3,15.2,2.8,18.7c6.3,5.1,8.4-1.8,8.5-7.5c-0.1-0.1-0.1-0.3-0.2-0.4
				C269.1,356.8,266.5,351.1,265.6,344.4z"/>
		</g>
		<g>
			<path fill="#B47E64" d="M276.9,355.3c0-0.7,0-1.4,0-2.1c0,0-0.1-0.1-0.1-0.1C276.9,353.8,276.9,354.5,276.9,355.3z"/>
		</g>
		<g>
			<path fill="#B47E64" d="M310.6,360.1c-1,5.4-2,0.8-6.6,0.2c-3.2,0-7.1-2.6-11.6-1.9c-3.9,0.4-6.8,4.7-10.1,3.7
				c1.6,4.5,3.1,8.9,6.5,10.8c5,2.8,17.7,2,18.2-2.7C311.6,377.7,313.4,368.5,310.6,360.1z"/>
		</g>
		<g>
			<path fill="#B47E64" d="M276.9,355.5c0-0.1,0-0.1,0-0.2C276.9,355.4,276.9,355.5,276.9,355.5
				C276.9,355.5,276.9,355.5,276.9,355.5z"/>
		</g>
		<g>
			<path fill="#B47E64" d="M265.5,343.8c0,0.2,0.1,0.4,0.1,0.6c0-0.1,0-0.2,0-0.2"/>
		</g>
		<g>
			<path fill="#B47E64" d="M310.4,359.6c0.1,0.2,0.1,0.3,0.2,0.5c0,0,0,0,0,0"/>
		</g>
		<g>
			<path fill="#B47E64" d="M303.7,335C303.7,335,303.7,335,303.7,335"/>
		</g>
	</g>
</g>
<g>
	<path fill="#EDDCD2" d="M352.4,48.3c-10.5-14.7-18.9-25.9-34.3-35.7c-7-4.2-19.6-17.5-23.8-7c-2.1,4.9,1.4,9.8,0.7,14.7
		c-0.7,4.2-3.5,8.4-4.2,11.9c-4.2,15.4-4.9,28,1.4,42.7c7,16.1,24.5,33.6,41.3,18.2c12.6-11.2,16.8-30.8,18.2-46.2"/>
</g>
<g>
	<path fill="#F2B598" d="M338.2,53.4c-0.6-10-4-23.2-11.2-30.7c-3.2-3.7-8.3-5.7-12.3-8.3c-4-2.3-9.2-7.7-13.8-8l-1.1,0.6
		c-2.3-0.2-4.3,0.3-6.1,1.3c-0.4,4,1.9,8.1,1.3,12.1c-0.7,4.2-3.5,8.4-4.2,11.9c-4.2,15.4-4.9,28,1.4,42.7c0.8,1.8,1.7,3.5,2.7,5.3
		c4,1.8,8.4,2.9,11.8,5.9c4,3.7,9.8,9.8,16.4,7.7c5.7-1.7,10-13.2,11.8-18.4C337,67.8,339,61.7,338.2,53.4z"/>
</g>
<g>
	<g>
		<path fill="#EDDCD2" d="M414.1-36.4c0.8,0,2.5-1.2,0.9-1.2C414.3-37.6,412.6-36.4,414.1-36.4L414.1-36.4z"/>
	</g>
</g>
<g>
	<path fill="#F29782" d="M338.2,53.4c-0.6-10-4-23.2-11.2-30.7c-3.2-3.7-8.3-5.7-12.3-8.3c-1.1-0.6-2.3-1.5-3.5-2.4
		c-0.2,0.2-0.4,0.4-0.6,0.6c-8,1.1,2.8,28.7,0,34.7c-3.1,6.4-5.2,3.2-10.4,4.6c-5.2,1.4-5.6,6.4-4.9,12.4c0.7,5,4.9,7.1,5.6,11.3
		c0.4,2.5-0.8,4.3-1.8,6.2c2.7,1.1,5.4,2.3,7.7,4.3c4,3.7,9.8,9.8,16.4,7.7c5.7-1.7,10-13.2,11.8-18.4C337,67.8,339,61.7,338.2,53.4
		z"/>
</g>
<g>
	<path fill="#E4887B" d="M329,88.3c2.7-4.2,4.7-9.6,5.7-12.8c1.4-4.6,2.6-8.6,3.2-12.8c-2.5-4.7-6.7-6.3-11.5,0.3
		c-2.2,2.9-2.9,6.1-3.8,9.3c-0.6,1.6-2.6,4.8-2.6,6.4C319.8,82.5,324.7,87.2,329,88.3z"/>
</g>
<g>
	<g>
		<g>
			<path fill="#B47E64" d="M76,348.1"/>
		</g>
		<g>
			<path fill="#B47E64" d="M37.6,338.4"/>
		</g>
		<g>
			<path fill="#B47E64" d="M59.3,350.4c-10-2.7-18.8-6.5-21.7-12c-0.7,2.8-0.9,5.5-0.2,7.8c1.6,5.4,4.3,6,6.8,4.4
				c-1.5,12.2,7.7,21.4,15,10.5c1.2,12.6,8.4,5.1,12.5-4.4c1.5-2.7,3-5.6,4.4-8.6C72.5,351.4,67,352.6,59.3,350.4z"/>
		</g>
		<g>
			<path fill="#B47E64" d="M37.6,338.4L37.6,338.4C37.6,338.4,37.6,338.4,37.6,338.4C37.6,338.4,37.6,338.4,37.6,338.4z"/>
		</g>
		<g>
			<path fill="#B47E64" d="M76,348.1C76,348.1,76,348.1,76,348.1C76,348.1,76,348.1,76,348.1L76,348.1z"/>
		</g>
	</g>
</g>
<g>
	<g>
		<path fill="#A17E64" d="M99.2,315.1c3.9,8.7,12.8,19,16.8,24.1c1,1.2,1.2,2.8,1.3,4.3c0.5-0.5,0.9-1.2,1.2-2.2
			c0.3,3.3,1.2,6.2,2.6,8.8c2.1,1.8,1.4-1,5.6-2.5c4-1.3,9.4-10.6,12.7-2.6h1.3c0,0,0-1,0-1.5c2.6,5,6.2,9.4,7.8,14.2
			c-14.7,8.3-28.8-0.3-30.1-15.1C117.8,349.1,100.7,346.4,99.2,315.1L99.2,315.1z"/>
	</g>
</g>
<g>
	<g>
		<g>
			<path fill="#EDDCD2" d="M427.7,60.2c-0.2,0-0.9-0.3-0.9-0.3s0.4-0.1,0.9-0.1c0.6-0.1,1.4-0.2,2.1-0.3c0.8-0.2,1.5-0.4,1.9-0.7
				c0.4-0.3,0.6-0.5,0.6-0.5c0,0-0.1,0.2-0.3,0.4c-0.3,0.2-0.7,0.6-1.3,0.8C429.7,60,428.3,60.2,427.7,60.2z"/>
		</g>
	</g>
</g>
<g>
	<g>
		<g>
			<path fill="#EDDCD2" d="M428,61.6c-0.3,0-1.2-0.3-1.2-0.3s0.5,0,1.3-0.1c0.8,0,1.8-0.3,2.8-0.5c2-0.5,4-1,4-1s-1.3,0.5-2.8,1
				c-0.7,0.3-1.5,0.5-2.3,0.7c-0.4,0.1-0.7,0.2-1,0.2C428.5,61.6,428.2,61.6,428,61.6z"/>
		</g>
	</g>
</g>
<g>
	<g>
		<g>
			<path fill="#EDDCD2" d="M430.5,64.1c-0.2-0.1-0.7-0.3-1-0.5c-0.4-0.2-0.7-0.4-0.7-0.4s0.8,0.3,2,0.5c1.2,0.2,2.7,0.2,4.3,0.2
				c1.5-0.1,3.1-0.3,4.1-0.7c0.2-0.1,0.5-0.2,0.7-0.3c0.2-0.1,0.3-0.2,0.4-0.3c0.2-0.2,0.3-0.3,0.3-0.3c0,0-0.2,0.3-0.8,0.7
				c-0.6,0.4-1.6,0.8-2.8,1C434.6,64.5,431.9,64.5,430.5,64.1z"/>
		</g>
	</g>
</g>
<g>
	<g>
		<g>
			<path fill="#EDDCD2" d="M432.9,67.7c-0.5-0.1-1.8-0.6-1.8-0.6s0.8,0.1,2,0.2c1.2,0.1,2.9,0.3,4.5,0.2c1.6,0,3.3-0.2,4.3-0.7
				c1-0.5,1.3-1.1,1.3-1c0,0-0.2,0.4-0.7,0.8c-0.6,0.5-1.7,0.9-2.9,1.1C437.1,68.2,434.2,68,432.9,67.7z"/>
		</g>
	</g>
</g>
<g>
	<g>
		<g>
			<path fill="#EDDCD2" d="M436.3,69.6c-0.3-0.1-0.8-1-0.8-0.9c0,0,0.4,0.3,1.1,0.6c0.7,0.3,1.6,0.3,2.5,0.3
				c0.9-0.1,1.7-0.3,2.3-0.5c0.3-0.1,0.5-0.2,0.7-0.3c0.2-0.1,0.3-0.1,0.3-0.1s-0.2,0.2-0.6,0.4c-0.4,0.2-1,0.5-1.6,0.7
				c-0.7,0.2-1.4,0.3-2.1,0.3c-0.3,0-0.7-0.1-1-0.1C436.7,69.8,436.4,69.7,436.3,69.6z"/>
		</g>
	</g>
</g>
<g>
	<g>
		<g>
			<path fill="#EDDCD2" d="M435.7,72.1c-0.1-0.1-0.2-0.4-0.3-0.6c-0.1-0.2-0.2-0.5-0.2-0.5s0.1,0.1,0.2,0.2c0.2,0.1,0.3,0.4,0.6,0.6
				c0.6,0.4,1.4,0.7,2.3,0.8c0.9,0.1,1.7,0,2.3-0.1c0.6-0.1,1.1-0.2,1.1-0.2s-0.3,0.1-0.7,0.2c-0.4,0.1-1,0.3-1.7,0.4
				c-0.3,0.1-0.7,0-1,0.1c-0.4,0-0.7-0.1-1-0.1c-0.3-0.1-0.7-0.2-0.9-0.3C436.1,72.5,435.9,72.3,435.7,72.1z"/>
		</g>
	</g>
</g>
<g>
	<g>
		<g>
			<path fill="#EDDCD2" d="M437.1,76.6c-0.1-0.1-0.2-0.4-0.2-0.6c-0.1-0.2-0.1-0.4-0.1-0.4s0.1,0.1,0.2,0.2c0.1,0.1,0.3,0.4,0.6,0.6
				c0.5,0.5,1.2,0.9,1.9,1.3c0.8,0.4,1.5,0.7,2.1,0.9c0.6,0.2,1,0.4,1,0.4s-1.1-0.2-2.3-0.6C439,78,437.6,77.3,437.1,76.6z"/>
		</g>
	</g>
</g>
<g>
	<g>
		<g>
			<path fill="#EDDCD2" d="M438.7,80.5c-0.1-0.1-0.3-0.5-0.4-0.9c-0.1-0.3-0.2-0.6-0.2-0.6s0.1,0.1,0.3,0.4c0.2,0.2,0.4,0.6,0.7,0.9
				c0.6,0.7,1.7,1.4,2.7,2c1.1,0.6,2.2,1,3.1,1.4c0.9,0.3,1.4,0.6,1.4,0.6s-0.4-0.1-1-0.3c-0.6-0.2-1.4-0.4-2.3-0.7
				c-0.4-0.1-0.9-0.3-1.3-0.5c-0.4-0.2-0.9-0.4-1.3-0.7c-0.4-0.3-0.7-0.5-1.1-0.8C439.1,81,438.9,80.7,438.7,80.5z"/>
		</g>
	</g>
</g>
<g>
	<g>
		<g>
			<path fill="#EDDCD2" d="M437.2,74.6c-0.2-0.2-0.4-1.1-0.4-1.1c0,0,0.1,0.1,0.2,0.2c0.2,0.1,0.3,0.4,0.6,0.6
				c0.5,0.4,1.4,0.8,2.2,1c0.8,0.2,1.7,0.3,2.3,0.4c0.6,0.1,1.1,0.1,1.1,0.1s-1.1,0.1-2.5,0.1c-0.3,0-0.7-0.1-1-0.1
				c-0.3-0.1-0.7-0.2-1-0.3c-0.3-0.1-0.6-0.3-0.9-0.4C437.6,74.9,437.4,74.7,437.2,74.6z"/>
		</g>
	</g>
</g>
<g>
	<g>
		<g>
			<path fill="#EDDCD2" d="M440.1,86.9c-0.1-0.2-0.2-0.7-0.2-1.1c0-0.2,0-0.4,0-0.6c0-0.1,0-0.2,0-0.2s0,0.2,0.1,0.6
				c0.1,0.3,0.3,0.8,0.5,1.3c0.6,1,1.6,2,2.7,3c1.1,1,2.2,1.9,3.1,2.5c0.9,0.7,1.4,1.2,1.4,1.2s-0.4-0.3-1-0.7
				c-0.6-0.4-1.5-1-2.4-1.6c-0.9-0.6-1.8-1.4-2.6-2.1C441,88.4,440.4,87.6,440.1,86.9z"/>
		</g>
	</g>
</g>
<g>
	<g>
		<g>
			<path fill="#EDDCD2" d="M339.6,60.4c0.1,0.2,0,0.5,0,0.8c-0.1,0.3-0.1,0.5-0.1,0.5s0-0.1-0.1-0.4c0-0.2-0.1-0.6-0.3-0.9
				c-0.3-0.7-1-1.4-1.9-1.9c-0.8-0.5-1.7-0.9-2.4-1.2c-0.7-0.3-1.1-0.6-1.1-0.6s0.3,0.1,0.8,0.3c0.5,0.2,1.1,0.4,1.8,0.6
				c0.7,0.3,1.4,0.6,2,1.1C339.1,59.2,339.5,59.9,339.6,60.4z"/>
		</g>
	</g>
</g>
<g>
	<g>
		<g>
			<path fill="#EDDCD2" d="M339.3,64.6c0.1,0.1,0.3,0.4,0.4,0.7c0.1,0.3,0.2,0.5,0.2,0.5s-0.1-0.1-0.3-0.3c-0.2-0.2-0.4-0.4-0.7-0.6
				c-0.6-0.5-1.5-1-2.4-1.4c-0.9-0.3-1.9-0.5-2.6-0.6c-0.4-0.1-0.7,0-0.9,0c-0.2,0-0.3,0-0.3,0s0.3,0,0.8-0.1c0.5,0,1.2,0,2,0.1
				c0.8,0.1,1.6,0.3,2.3,0.7c0.3,0.2,0.7,0.4,0.9,0.5C338.9,64.3,339.1,64.5,339.3,64.6z"/>
		</g>
	</g>
</g>
<g>
	<g>
		<g>
			<path fill="#EDDCD2" d="M337,65.1c0.2,0,0.8,0.3,0.8,0.3l-5.4,0.9c0,0,0.8-0.3,1.8-0.7C335.2,65.4,336.4,65.1,337,65.1z"/>
		</g>
	</g>
</g>
<g>
	<g>
		<g>
			<path fill="#EDDCD2" d="M337,67.5c0.2,0,0.6,0.3,0.6,0.3s-1.1,0.3-2.3,0.5c-0.6,0.2-1.1,0.3-1.5,0.5c-0.4,0.2-0.6,0.3-0.6,0.3
				s0.2-0.1,0.4-0.3c0.2-0.2,0.6-0.4,1-0.6C335.6,67.7,336.6,67.5,337,67.5z"/>
		</g>
	</g>
</g>
<g>
	<g>
		<g>
			<path fill="#EDDCD2" d="M336.3,70.6c0.2,0,0.9,0.3,0.9,0.3l-6.5,0.9C330.7,71.9,334.9,70.5,336.3,70.6z"/>
		</g>
	</g>
</g>
<g>
	<g>
		<g>
			<path fill="#EDDCD2" d="M335.8,74.4c0.2,0,0.9,0.1,0.9,0.1s-0.3,0.2-0.9,0.4c-0.5,0.3-1.3,0.5-2,0.7c-1.5,0.4-3.1,0.6-3.1,0.6
				s1-0.4,2.2-0.8c0.3-0.1,0.6-0.2,0.9-0.3c0.3-0.1,0.6-0.2,0.8-0.3c0.3-0.1,0.5-0.2,0.7-0.3C335.5,74.5,335.7,74.4,335.8,74.4z"/>
		</g>
	</g>
</g>
<g>
	<g>
		<g>
			<path fill="#EDDCD2" d="M335.5,77.3c0.1,0,0.2-0.1,0.3-0.1c0.1-0.1,0.3-0.1,0.4-0.2c0.2-0.1,0.5-0.3,0.5-0.3s-0.1,0.1-0.2,0.3
				c-0.2,0.2-0.4,0.5-0.8,0.7c-0.8,0.5-2.1,0.9-3.4,1c-1.3,0.2-2.7,0.1-3.7,0c-1-0.1-1.7-0.3-1.7-0.3s0.5,0.1,1.2,0.1
				c0.7,0,1.7,0,2.6,0c1-0.1,2-0.3,2.9-0.5C334.4,77.8,335.1,77.5,335.5,77.3z"/>
		</g>
	</g>
</g>
<g>
	<g>
		<g>
			<path fill="#EDDCD2" d="M335.7,80.7c0.2,0,0.6,0,1,0c0.4,0,0.7,0,0.7,0s-0.2,0-0.5,0.1c-0.3,0.1-0.8,0.2-1.3,0.3
				c-1.1,0.2-2.6,0.3-4.2,0.4c-1.5,0-3.1-0.2-4.2-0.4c-0.6-0.1-1-0.2-1.4-0.3c-0.3-0.1-0.5-0.1-0.5-0.1s0.5,0.1,1.3,0.1
				c0.8,0.1,1.9,0.1,3,0.2C331.9,81.2,334.5,80.9,335.7,80.7z"/>
		</g>
	</g>
</g>
<g>
	<g>
		<g>
			<path fill="#EDDCD2" d="M332.1,83.2c0.2,0,1,0.3,1,0.3s-0.4,0.1-1,0.2c-0.6,0.1-1.4,0.3-2.2,0.5c-0.8,0.1-1.7,0.2-2.3,0.1
				c-0.3,0-0.6-0.1-0.8-0.2c-0.2,0-0.3-0.1-0.3-0.1s0.3,0,0.8,0.1c0.5,0,1.1,0,1.7-0.1C330.1,83.7,331.3,83.2,332.1,83.2z"/>
		</g>
	</g>
</g>
<g>
	<g>
		<g>
			<path fill="#EDDCD2" d="M331.1,85.8c0.2,0,0.5-0.1,0.8-0.1c0.3,0,0.5,0,0.5,0s-0.1,0.1-0.3,0.2c-0.2,0.1-0.5,0.3-0.9,0.4
				c-0.8,0.4-1.9,0.7-3,1c-1.1,0.3-2.3,0.5-3.2,0.5c-0.5,0-0.8,0-1.1,0c-0.3,0-0.4,0-0.4,0s0.4,0,1,0c0.6-0.1,1.4-0.2,2.3-0.4
				C328.4,86.8,330.2,86,331.1,85.8z"/>
		</g>
	</g>
</g>
<g>
	<g>
		<g>
			<path fill="#EDDCD2" d="M338.1,56.1c0.1,0.1,0.1,0.1,0.2,0.2c0.1,0.1,0.2,0.2,0.3,0.3c0.2,0.2,0.4,0.4,0.4,0.4s-0.1-0.1-0.3-0.1
				c-0.2-0.1-0.5-0.2-0.9-0.5c-0.8-0.4-1.6-1.2-2.4-2.1c-0.8-0.9-1.5-1.9-1.9-2.7c-0.3-0.4-0.4-0.7-0.5-1c-0.1-0.2-0.2-0.4-0.2-0.4
				s0.2,0.3,0.6,0.9c0.4,0.5,0.9,1.2,1.5,1.8C335.9,54.3,337.4,55.6,338.1,56.1z"/>
		</g>
	</g>
</g>
<g>
	<g>
		<g>
			<path fill="#EDDCD2" d="M327.9,91c0.2,0.1,0.6,0.2,0.9,0.3c0.3,0.1,0.6,0.2,0.6,0.2s-0.7,0-1.7-0.1c-1.1-0.1-2.5-0.4-3.9-0.5
				c-1.4-0.1-2.8,0-3.7,0.4c-0.9,0.4-1.2,0.8-1.2,0.8c0,0,0.1-0.1,0.2-0.2c0.1-0.1,0.3-0.3,0.5-0.5c0.5-0.4,1.5-0.7,2.5-0.8
				C324.2,90.4,326.7,90.8,327.9,91z"/>
		</g>
	</g>
</g>
<g>
	<g>
		<path fill="#EFE8EA" d="M361.4,109.6c1.3-1.1,1.9-4.7,1.6-6.5c-0.4-3.2-4.6-6-7.8-5.2c-3.1,0.7-4,4.4-3.6,7.6
			C352.1,108.2,359.4,107.8,361.4,109.6"/>
	</g>
	<g>
		<g>
			
				<radialGradient id="SVGID_2_" cx="346.7269" cy="101.7179" r="6.6231" gradientTransform="matrix(0.9813 0 0 1.2853 16.3996 -25.6257)" gradientUnits="userSpaceOnUse">
				<stop  offset="0" style="stop-color:#000000"/>
				<stop  offset="0.1287" style="stop-color:#150C04"/>
				<stop  offset="0.3696" style="stop-color:#351F0B"/>
				<stop  offset="0.6009" style="stop-color:#4D2D0F"/>
				<stop  offset="0.8163" style="stop-color:#5B3512"/>
				<stop  offset="1" style="stop-color:#603813"/>
			</radialGradient>
			<path fill="url(#SVGID_2_)" d="M361.4,109.6c0-3.3,1.5-5.2-0.5-8.1c-1.4-2-5.1-4.9-7.8-2.8c-3.1,2.4-4.2,11.4,0.8,12.4
				c1,0.2,2.4,0.4,3.4,0.2c1.4-0.3,2.3-1.8,3.7-1.8"/>
		</g>
		<g>
			<path fill="#8E7070" d="M354.1,101c-1.6-0.1-0.9-2.1,0.5-1.8c1.4,0.3,1.1,1.9-0.3,1.7"/>
		</g>
	</g>
	<path fill="#E3807B" d="M363,103.7c-0.1-5.2-8.4-6.3-10.8-4.2c0-2.3,4.6-2.8,6-2.4C360.6,97.9,363.4,100.6,363,103.7"/>
	<g>
		<g>
			<g>
				<path fill="#EFE8EA" d="M352.6,98.6c0,0,0.2,0.3,0.2,0.3c0,0-0.1,0.1-0.4,0.1c-0.2,0-0.6-0.1-1-0.2c-0.4-0.2-0.7-0.4-0.9-0.6
					c-0.2-0.2-0.4-0.3-0.4-0.3s0.1,0,0.3,0.1c0.2,0.1,0.5,0.2,0.8,0.3c0.3,0.1,0.6,0.2,0.9,0.2c0.1,0,0.2,0,0.3,0
					C352.5,98.6,352.6,98.6,352.6,98.6z"/>
			</g>
		</g>
	</g>
	<g>
		<g>
			<g>
				<path fill="#EFE8EA" d="M354,98.3c0,0,0.2,0.3,0.2,0.3c0,0-0.1,0.1-0.3,0.2c-0.2,0.1-0.6,0.1-0.9,0c-0.3-0.1-0.7-0.3-1-0.5
					c-0.2-0.2-0.4-0.4-0.4-0.4s0.1,0.1,0.4,0.2c0.2,0.1,0.5,0.2,0.8,0.3C353.4,98.5,353.9,98.3,354,98.3z"/>
			</g>
		</g>
	</g>
	<g>
		<g>
			<g>
				<path fill="#EFE8EA" d="M355.3,98.4c0,0.1,0.1,0.4,0.2,0.4c0,0-0.2,0-0.5-0.1c-0.3-0.1-0.7-0.3-1-0.6c-0.3-0.3-0.7-0.7-0.9-0.9
					c-0.2-0.3-0.4-0.4-0.4-0.4s0.6,0.4,1.1,0.8C354.4,98,355.1,98.3,355.3,98.4z"/>
			</g>
		</g>
	</g>
	<g>
		<g>
			<g>
				<path fill="#EFE8EA" d="M356.4,98.2c0,0,0,0.1,0,0.1c0.1,0.1,0.1,0.1,0.1,0.1c0,0-0.1,0.1-0.3,0.2c-0.2,0.1-0.6-0.1-0.8-0.4
					c-0.2-0.3-0.3-0.7-0.4-1.1c-0.1-0.3-0.1-0.6-0.1-0.6s0,0.2,0.1,0.4c0.1,0.2,0.2,0.5,0.4,0.8c0.2,0.2,0.4,0.5,0.6,0.5
					C356.4,98.3,356.4,98.2,356.4,98.2z"/>
			</g>
		</g>
	</g>
	<g>
		<g>
			<g>
				<path fill="#EFE8EA" d="M357.5,98.3c0,0,0,0.3,0,0.3c0,0,0,0.1-0.2,0.1c-0.1,0.1-0.4,0.1-0.6-0.1c-0.5-0.3-0.8-0.9-0.8-0.9
					s0.4,0.4,0.8,0.6c0.2,0.1,0.4,0.1,0.6,0.1C357.5,98.4,357.5,98.3,357.5,98.3z"/>
			</g>
		</g>
	</g>
</g>
<g>
	<g>
		<g>
			<path fill="#EFE8EA" d="M431.8,102.9c-0.1-0.1-0.2-0.5-0.2-0.5c0,0,0.2,0.1,0.5,0.2c0.3,0.1,0.6,0,0.9-0.1
				c0.3-0.1,0.5-0.3,0.6-0.5c0.1-0.2,0.1-0.2,0.1-0.2c0,0,0.1,0.4-0.3,0.9C432.9,103.1,432.1,103.2,431.8,102.9z"/>
		</g>
	</g>
</g>
<g>
	<g>
		<g>
			<path fill="#EFE8EA" d="M432.2,102.8c0-0.1,0.2-0.5,0.2-0.5c0,0,0.1,0.2,0.3,0.4c0.1,0.1,0.2,0.2,0.3,0.3
				c0.2,0.1,0.3,0.1,0.4,0.1c0.3,0,0.5-0.1,0.7-0.2c0.2-0.1,0.3-0.2,0.3-0.2s-0.1,0.1-0.2,0.2c-0.1,0.1-0.3,0.3-0.6,0.4
				c-0.2,0.1-0.6,0.2-0.9,0C432.5,103.3,432.3,103,432.2,102.8z"/>
		</g>
	</g>
</g>
<g>
	<g>
		<g>
			<path fill="#EFE8EA" d="M432.5,103.4c-0.1-0.1-0.2-0.6-0.2-0.6s0.2,0.1,0.5,0.3c0.3,0.1,0.8,0.3,1.2,0.2c0.8-0.2,1.2-0.9,1.2-0.8
				c0,0-0.1,0.6-0.7,1c-0.3,0.2-0.7,0.3-1.1,0.3C432.9,103.6,432.6,103.5,432.5,103.4z"/>
		</g>
	</g>
</g>
</svg>
